<svg xmlns="http://www.w3.org/2000/svg" viewBox="0 0 559.05 683.01"><defs><style>.a,.c,.g,.i,.m{fill:#fff;}.a,.b,.d,.e,.f,.g,.i,.k,.l,.m{stroke:#039;}.a,.b,.d,.e,.g,.i,.k,.l{stroke-miterlimit:10;}.a,.b,.l{stroke-width:8px;}.b{fill:#bedef4;}.d,.l{fill:#368dce;}.d,.e,.f{stroke-width:4px;}.e,.f,.h{fill:#df5233;}.f,.m{stroke-linecap:round;stroke-linejoin:round;}.g{stroke-width:12px;}.i,.m{stroke-width:10px;}.j{fill:#039;}.k{fill:#f9c;stroke-width:5px;}</style></defs><path class="a" d="M119.54,564.87c13.34,4,4,16,4,25s-.7,23.14,27.65,23.57,48.35-7.57,56.35-13.57,15-26,15-26l13-11.35,9,36.35-10,13s-18,13-25,16-48,23-71,22-43.36-14.31-48.68-43.66S109.54,561.87,119.54,564.87Z"/><path class="a" d="M287.88,575.86s53.66-19,54.66-15-4,54-8,71-11,39-22,40-16-24-21-42S277.23,583.84,287.88,575.86Z"/><path class="a" d="M261.71,679c13.83-1.11,17.08-24.61,20.83-47.11,4-24,8-56,8-56l-68-17-13-11s7,53,18,80S247.88,680.08,261.71,679Z"/><path class="a" d="M213.56,402.45c-13,10.42-9,25.42-48,36.42s-48,10-48,17,4,28,25,32,40.1,3.34,53.05-1.33,22.45-21,22.45-21Z"/><path class="a" d="M357.54,391.87c18,17,58,47,67,62s11.3,26.26,8.65,36.63-19.65,8.37-27.65,2.37-37-27-37-27l-22.68-63.42Z"/><path class="b" d="M229.54,369.87s-33,55-34,108,18,114,18,114h130c2,0,20-40,30-72s10-101-8-129-37-39-37-39l-89.84,4Z"/><polyline class="c" points="229.78 377.11 318.36 444.85 365.74 366.52 229.78 377.11"/><path class="d" d="M222.13,378.57l-7.39,21.09s93.66,64.51,98.73,68.86,15.07-10.65,15.07-10.65v-22l-87-61Z"/><path class="d" d="M364.19,373.75c6.35,2.12,2.35,15.12,2.35,15.12S306.43,516.61,305,537.24s-23.45,12.63-23.45,12.63-4-20,11-62,46.3-113.24,48.65-114.12S364.19,373.75,364.19,373.75Z"/><path class="e" d="M201.19,532.26c15.42,2.18,69.35,7.61,97.35,5.61s59-14,68-19,9.11-6.91,9.11-6.91-6.13,22.83-8.62,26.37-30,17.84-83.23,19.19-78.26.35-78.26.35S196.83,531.64,201.19,532.26Z"/><path class="e" d="M323.14,581.87c1.4,1,17.4-16,17.4-17s-33.56-24-33.56-24l-21.36,14.8S321.73,580.87,323.14,581.87Z"/><path class="f" d="M318.11,535.09c-9.57,1.78-23.4,5.42-32.49,11.1s-38.08,26.68-38.08,26.68l21,10s18.64-14.7,24.32-20.35c.66-.66,1.42-1.4,2.25-2.2,6.33-6.09,16.9-15.56,20.43-16.45C319.54,542.87,318.11,535.09,318.11,535.09Z"/><path class="g" d="M514.05,213.68S582.12,40.91,538.39,11.34,384,84.52,384,84.52Z"/><path class="h" d="M502.81,162.69s39.88-101,13.71-118.55-91.7,42.3-91.7,42.3Z"/><path class="g" d="M48.38,213.87S-23.31,42.57,19.79,12.09,175.71,82,175.71,82Z"/><path class="h" d="M58.54,162.66s-42-100.19-16.2-118.24,92.57,40.37,92.57,40.37Z"/><path class="i" d="M238.54,23.87c24-19,82.83,22.88,84,23,3.21.33,0-15-11-27,39-7,42.27,45.26,46,46,13,3,19,7,26,11C406.12,90.5,441.4,109.82,500.65,184.8,625.54,342.87,333,383.87,281.54,383.87s-313-27-223-198c61.07-81.95,105-101,124-110,13.74-6.5,36.87-13.28,64.88-16.72C258.16,57.83,262.54,46.87,238.54,23.87Z"/><path class="j" d="M306.06,330.9c-9.37,0-16.62-4-18.75-6.73-1.28,2.67-6.11,6.33-17.26,6.33-1.33,0-2.74-.05-4.19-.16-16.83-1.2-27.66-20.25-27.66-23,0-1.55.87-2.09,1.61-2.09,1.25,0,2.69,1.34,3.94,3.68,4.88,9.1,12.35,14.37,22.21,15.65a35.78,35.78,0,0,0,4.66.33c8.73,0,11.11-4,12.53-6.44.2-.33.38-.63.55-.89,1.15-1.72,1-12.71.61-19.67l0-.53H290v.5c0,.15,0,15.39.4,19.09.33,3.08,9.81,8.82,18.19,8.82.33,0,.66,0,1,0,6.91-.43,16.87-8,19.71-12.77,4.3-7.16,5.86-8.08,6.73-8.08s1.29.82,1.29,2.43c-1.29,6.51-11.36,20.38-25.24,23A33.28,33.28,0,0,1,306.06,330.9Z"/><path class="j" d="M289.54,297.92s0,15.37.41,19.14,10.56,9.27,18.68,9.27l1,0c6.89-.43,17.05-7.94,20.1-13,2.53-4.22,5.06-7.84,6.31-7.84.49,0,.78.58.78,1.93-1.18,5.91-10.82,19.87-24.83,22.47a32.78,32.78,0,0,1-5.95.55c-11,0-18.88-5.63-18.88-7.65,0,2.16-3.92,7.25-17.13,7.25-1.29,0-2.68-.05-4.16-.15-16.55-1.19-27.19-20.11-27.19-22.47,0-1,.43-1.59,1.11-1.59.9,0,2.22,1,3.5,3.42,2.25,4.19,8.2,14,22.58,15.91a38.19,38.19,0,0,0,4.73.33c10.18,0,12-5.37,13.5-7.55,1.66-2.49.69-20,.69-20h4.73m1-1h-6.78l.06,1.06c.46,8.43.39,18-.54,19.36-.17.27-.36.57-.56.91-1.45,2.47-3.66,6.2-12.1,6.2a34.91,34.91,0,0,1-4.6-.33c-9.69-1.26-17-6.44-21.83-15.38-1.36-2.55-2.92-3.95-4.38-3.95a1.93,1.93,0,0,0-1.62.83,3,3,0,0,0-.49,1.76c0,2.77,11,22.24,28.12,23.46,1.46.11,2.89.16,4.23.16,10.31,0,15.57-3.08,17.38-5.95,2.78,2.9,9.9,6.35,18.63,6.35a33.3,33.3,0,0,0,6.13-.57c14.1-2.62,24.33-16.73,25.63-23.25l0-.1v-.1c0-2.42-1-2.93-1.78-2.93-1.13,0-2.78,1-7.17,8.33-2.79,4.64-12.55,12.1-19.31,12.52-.31,0-.63,0-.95,0-7.9,0-17.38-5.46-17.69-8.38-.39-3.67-.4-18.88-.4-19v-1Z"/><path class="k" d="M287.34,301.81c7.7.51,19.8-17.09,19.8-20.39s-13.48-9.64-23.24-9.22-19.66,5.92-19.66,10.32S279.65,301.31,287.34,301.81Z"/><path class="l" d="M46.54,231.87s77.7-85.45,239-87.5,231,73.5,231,73.5a401,401,0,0,0-31-49c-18-24-28-32-39-44s-89.85-34.18-169-35-177,49-177,49-13,16-30,37S46.54,231.87,46.54,231.87Z"/><path class="m" d="M154.53,194.87c5.77-5,15.7-11.32,29.2-5"/><path class="m" d="M402.6,195.34c-5.78-5-15.7-11.32-29.2-5"/><circle class="j" cx="187.79" cy="255.57" r="30.25"/><circle class="c" cx="191.54" cy="245.87" r="4"/><circle class="c" cx="176.02" cy="242.4" r="6.48"/><circle class="j" cx="380.29" cy="255.57" r="30.25"/><circle class="c" cx="371.72" cy="241.9" r="5.98"/><circle class="c" cx="388.14" cy="246.22" r="4.4"/></svg>