<?xml version="1.0" standalone="no"?>
<!DOCTYPE svg PUBLIC "-//W3C//DTD SVG 1.1//EN" "http://www.w3.org/Graphics/SVG/1.1/DTD/svg11.dtd" >
<svg>
<metadata>
Created by FontForge 20120731 at Thu Jun 16 04:48:19 2022
 By ffonts
Copyright \(c\) 2022 by Khurasan &#38; Jalembe. All rights reserved.
</metadata>
<defs>
<font id="FreshSteak" horiz-adv-x="651" >
  <font-face 
    font-family="Fresh Steak"
    font-weight="400"
    font-stretch="normal"
    units-per-em="1000"
    panose-1="0 0 0 0 0 0 0 0 0 0"
    ascent="800"
    descent="-200"
    x-height="544"
    cap-height="776"
    bbox="24.6501 -236.818 874.042 885.478"
    underline-thickness="50"
    underline-position="-50"
    stemh="148"
    stemv="224"
    unicode-range="U+000D-201D"
  />
<missing-glyph horiz-adv-x="501" 
d="M411 803v-1003h-318v1003h318zM334 119h-166v-113h166v113zM301 86v-47h-100v47h100zM334 292h-100v-56h34v23h33v-47h-100v80h-33v-113h166v113zM334 415h-33v-66h-133v-34h166v100zM334 475h-166v-33h66v-37h-66v-33h100v70h66v33zM234 572v-36h-33v36h33zM268 606
h-100v-104h166v34h-66v70zM334 736h-165v-33h65v-37h-66v-34h166v34h-66v37h66v33zM334 -17h-166v-34h70l-70 -47v-33h166v33h-102l70 47h32v34z" />
    <glyph glyph-name=".notdef" horiz-adv-x="501" 
d="M411 803v-1003h-318v1003h318zM334 119h-166v-113h166v113zM301 86v-47h-100v47h100zM334 292h-100v-56h34v23h33v-47h-100v80h-33v-113h166v113zM334 415h-33v-66h-133v-34h166v100zM334 475h-166v-33h66v-37h-66v-33h100v70h66v33zM234 572v-36h-33v36h33zM268 606
h-100v-104h166v34h-66v70zM334 736h-165v-33h65v-37h-66v-34h166v34h-66v37h66v33zM334 -17h-166v-34h70l-70 -47v-33h166v33h-102l70 47h32v34z" />
    <glyph glyph-name="NULL" horiz-adv-x="0" 
 />
    <glyph glyph-name="NULL" horiz-adv-x="0" 
 />
    <glyph glyph-name="CR" unicode="&#xd;" horiz-adv-x="346" 
 />
    <glyph glyph-name="space" unicode=" " horiz-adv-x="346" 
 />
    <glyph glyph-name="z" unicode="z" horiz-adv-x="520" 
d="M333 168c60 -2 139 25 143 -53c2 -21 1 -44 -1 -66c-5 -50 -26 -70 -76 -73c-65 -5 -132 -7 -195 -9c-48 0 -85 -2 -122 10c-25 9 -40 25 -41 50c-4 62 8 129 56 162c61 36 149 83 182 142c8 20 -2 37 -26 34c-31 -1 -61 -6 -91 -12c-79 -17 -97 -5 -113 72
c-4 27 -7 51 -11 76c-4 42 17 67 60 71c63 5 123 12 187 16c64 7 169 -14 175 -90c4 -32 6 -64 5 -95c-3 -67 -37 -119 -89 -158c-15 -11 -31 -22 -44 -32c-22 -18 -24 -41 1 -45z" />
    <glyph glyph-name="y" unicode="y" horiz-adv-x="634" 
d="M361 202c-179 -126 -300 -54 -315 147c-3 48 -3 96 0 144c2 36 22 56 56 65c28 8 56 12 85 8c29 -5 39 -13 42 -44c3 -33 1 -68 3 -102c10 -174 114 -124 126 20c3 31 8 61 22 89c20 75 207 57 206 -20c-2 -152 -1 -364 -30 -501c-36 -172 -293 -204 -394 -117
c-31 27 -21 108 3 142c12 19 26 25 46 19c16 -4 31 -11 46 -16c118 -25 120 83 104 166z" />
    <glyph glyph-name="x" unicode="x" horiz-adv-x="660" 
d="M193 269c-48 79 -97 127 -135 187c-24 38 -9 75 30 97c19 13 42 21 64 25c40 12 62 4 85 -30c38 -55 66 -110 95 -164c26 63 63 127 81 178c10 18 24 26 46 25c49 -3 206 -50 152 -118c-55 -72 -116 -147 -155 -202c30 -40 124 -143 135 -177c22 -69 -86 -104 -143 -103
c-26 0 -55 16 -65 39c-21 49 -35 72 -57 112c-40 -49 -68 -92 -95 -138c-28 -48 -116 -7 -143 26c-33 22 -35 43 -14 75c39 60 80 113 119 168z" />
    <glyph glyph-name="w" unicode="w" horiz-adv-x="749" 
d="M345 142c-27 -46 -58 -89 -96 -121c-39 -32 -90 -33 -131 -13c-148 72 -68 410 -47 484c9 45 35 61 81 56c8 0 20 0 32 1c43 4 73 -20 74 -61c0 -55 -16 -103 -26 -152c-18 -89 23 -97 52 -23c8 18 13 34 20 48c9 22 24 37 49 37c28 1 54 -5 68 -32c9 -17 16 -37 24 -57
c36 -87 65 -44 60 29c-6 57 -21 110 -19 176c1 28 32 30 60 29c28 0 56 0 85 -1c35 -1 46 -11 50 -47c15 -84 57 -350 -44 -470c-27 -31 -65 -48 -119 -38c-40 8 -75 25 -99 57c-25 30 -49 63 -74 98z" />
    <glyph glyph-name="v" unicode="v" horiz-adv-x="676" 
d="M334 -20c-93 -12 -151 34 -181 109c-37 92 -66 187 -94 280c-16 54 -44 163 30 180c12 3 25 4 38 4c54 4 113 17 143 -36c13 -26 18 -52 18 -79c4 -57 9 -114 17 -168c23 -126 71 -83 93 9c16 60 34 144 47 206c8 37 25 48 52 50c95 5 146 -3 142 -61
c-10 -137 -44 -258 -108 -368c-39 -70 -94 -129 -176 -126c-10 1 -18 0 -21 0z" />
    <glyph glyph-name="u" unicode="u" horiz-adv-x="699" 
d="M440 49c-12 -8 -22 -14 -31 -19c-63 -46 -137 -56 -213 -43c-217 37 -145 442 -134 505c7 29 27 43 57 44c24 0 48 1 74 1c44 -1 67 -17 75 -54c17 -72 -11 -163 -8 -236c1 -34 18 -51 53 -60c70 -12 106 54 106 106c-1 52 -1 101 -9 151c-7 64 17 92 97 100
c19 2 41 1 61 -1c64 -7 81 -68 81 -114c0 -54 -5 -111 -10 -168c-4 -55 -2 -108 16 -164c4 -14 7 -29 10 -46c4 -26 -9 -47 -36 -53c-30 -9 -61 -15 -92 -17c-49 0 -72 39 -97 68z" />
    <glyph glyph-name="t" unicode="t" horiz-adv-x="599" 
d="M395 488c21 -3 41 -4 61 -8c14 -4 33 -8 46 -15c45 -23 47 -127 2 -152c-13 -8 -31 -11 -47 -13c-26 -2 -52 0 -80 0c-4 -41 -3 -77 9 -115c8 -26 22 -35 51 -33c11 2 23 6 35 10c34 9 60 1 76 -31c28 -57 21 -111 -40 -142c-67 -32 -141 -44 -218 -24
c-53 14 -86 50 -100 104c-14 66 -22 134 -20 203c1 9 0 20 0 31c-25 6 -48 10 -70 17c-40 10 -58 32 -61 69c-1 17 -2 35 1 51c6 43 28 60 71 59c11 0 20 -3 29 -4c15 -1 26 -3 44 -4c2 23 6 45 7 67c4 38 7 77 13 114c8 47 30 70 80 76c12 2 25 2 39 2c50 0 82 -24 85 -73
c3 -38 0 -77 -2 -115c-1 -24 -7 -48 -11 -74z" />
    <glyph glyph-name="s" unicode="s" horiz-adv-x="483" 
d="M456 525c1 -40 -9 -79 -31 -117c-8 -13 -22 -18 -38 -15c-12 3 -26 6 -37 7c-54 7 -87 -44 -53 -76c83 -77 154 -103 151 -223c-1 -83 -56 -127 -134 -139c-73 -12 -146 -7 -216 9c-25 7 -40 21 -44 44c-3 28 -6 56 -6 84c1 44 32 63 79 56c18 -2 35 -4 54 -3
c35 1 39 26 30 49c-9 25 -46 43 -78 63c-122 84 -120 265 29 313c67 22 152 17 221 -4c28 -9 68 -19 73 -48z" />
    <glyph glyph-name="r" unicode="r" horiz-adv-x="524" 
d="M254 440c11 8 19 14 28 21c44 27 88 44 139 41c43 -1 65 -22 63 -64c-1 -38 -4 -74 -8 -112c-5 -28 -18 -38 -45 -33c-162 31 -187 -146 -175 -264c7 -70 -94 -72 -154 -66c-44 9 -61 30 -61 75c0 133 -2 258 -9 392c-1 23 -1 46 1 68c4 78 93 79 156 65
c41 -10 55 -50 60 -88c2 -11 3 -21 5 -35z" />
    <glyph glyph-name="q" unicode="q" horiz-adv-x="680" 
d="M383 542c5 12 6 20 10 29c11 23 29 38 54 39c34 2 70 -1 105 -11c32 -10 50 -31 54 -64c19 -189 15 -377 15 -567c0 -34 -2 -67 -7 -101c-11 -52 -38 -80 -89 -82c-33 -1 -66 0 -98 7c-39 6 -57 28 -58 70c0 48 3 95 5 142v73c-138 -42 -287 -25 -308 139
c-9 161 25 332 204 340c37 1 74 0 113 -14zM381 225c2 46 5 90 7 140c-116 22 -139 -182 -7 -140z" />
    <glyph glyph-name="p" unicode="p" horiz-adv-x="611" 
d="M253 548c121 56 284 14 312 -122c16 -74 6 -147 -27 -215c-36 -72 -99 -110 -181 -117c-20 -2 -44 0 -69 0c-5 -51 -1 -102 -2 -152c-1 -60 -23 -85 -80 -99c-56 -14 -157 -19 -155 73c1 55 1 113 1 170c0 46 2 95 2 141c0 78 -2 155 -2 232c0 20 -1 39 -2 59
c-2 30 10 56 38 70c29 16 59 22 91 23c30 2 52 -12 64 -41c4 -8 7 -16 10 -22zM319 280c58 -4 117 16 93 94c-11 35 -55 53 -85 32c-5 -3 -9 -11 -9 -18c-1 -33 1 -69 1 -108z" />
    <glyph glyph-name="o" unicode="o" horiz-adv-x="546" 
d="M81 472c26 53 71 77 127 78c96 1 209 2 256 -72c51 -81 60 -232 17 -345c-37 -95 -84 -130 -177 -142c-132 -17 -236 34 -251 147c-15 115 -8 242 28 334zM289 396c-53 2 -53 -72 -53 -105c0 -43 5 -97 38 -104c75 -18 72 126 62 160c-9 27 -23 47 -47 49z" />
    <glyph glyph-name="n" unicode="n" horiz-adv-x="726" 
d="M279 440c95 68 215 156 320 55c84 -82 86 -351 61 -456c-13 -51 -61 -68 -119 -67c-56 1 -105 22 -95 80c3 38 8 112 8 172c0 174 -148 126 -176 -16c-6 -39 -9 -79 -14 -120c-3 -14 -3 -29 -7 -42c-7 -41 -41 -69 -80 -67c-57 0 -119 6 -126 64c-8 146 12 303 23 435
c2 18 7 36 15 52c24 52 149 46 167 6c6 -13 12 -26 15 -39c4 -16 6 -32 8 -57z" />
    <glyph glyph-name="m" unicode="m" horiz-adv-x="909" 
d="M532 484c110 103 232 86 294 5c48 -60 58 -301 39 -435c-9 -59 -54 -73 -111 -74c-59 -1 -85 28 -80 83c4 83 6 165 -3 243c-15 100 -93 72 -102 -37c-1 -25 -2 -49 -4 -72c-2 -27 -7 -51 -15 -77c-14 -41 -44 -60 -86 -57c-68 2 -87 13 -91 77c-1 12 -1 25 -2 38
c-1 24 0 46 -1 70c0 191 -122 133 -122 -9c-1 -59 -2 -116 -3 -176c0 -20 -2 -38 -8 -52c-11 -25 -39 -35 -69 -35c-83 0 -130 14 -130 89c-3 141 2 307 20 447c10 45 56 59 100 62c45 2 78 5 100 -38c3 -11 6 -21 10 -33c93 74 195 103 264 -19z" />
    <glyph glyph-name="l" unicode="l" horiz-adv-x="420" 
d="M43 599c1 35 6 69 13 104c9 40 36 64 82 65c27 1 54 0 82 -7c45 -9 71 -35 71 -78c-6 -165 -14 -323 -26 -481c-5 -69 22 -65 75 -73c46 -7 55 -73 37 -118c-22 -51 -95 -57 -148 -56c-155 2 -182 106 -189 239c-7 137 -1 275 3 405z" />
    <glyph glyph-name="k" unicode="k" horiz-adv-x="586" 
d="M414 275c32 -29 69 -75 91 -99c16 -15 28 -33 38 -54c5 -8 8 -23 3 -33c-22 -54 -105 -114 -154 -74c-39 32 -80 101 -110 131c4 -37 11 -73 11 -110c0 -33 -14 -58 -49 -64c-42 -7 -85 -8 -126 -8c-64 0 -67 71 -67 112c3 200 -10 406 -7 608c0 49 31 71 78 79
c20 0 58 1 78 1c58 -1 60 -36 60 -78c4 -102 4 -207 3 -308c0 -33 20 -13 33 2c24 33 49 62 76 94c8 8 16 16 24 25c17 12 36 18 56 11c32 -13 60 -31 79 -56c23 -31 23 -52 -4 -81c-38 -39 -73 -69 -113 -98z" />
    <glyph glyph-name="j" unicode="j" horiz-adv-x="526" 
d="M473 265c3 -73 -3 -145 -24 -213c-25 -81 -89 -137 -174 -143c-57 -5 -110 4 -163 30c-69 33 -84 128 -32 184c19 20 43 24 68 14c65 -21 97 0 101 73c2 34 -3 70 -4 107c-3 55 -26 151 51 153c27 2 56 0 83 0c89 -2 89 -80 92 -144c2 -21 2 -42 2 -61zM298 510
c-32 0 -57 23 -58 56c0 19 0 39 2 55c7 50 33 78 81 79c37 0 126 -9 126 -59c2 -27 4 -50 2 -75c-1 -29 -19 -45 -46 -49c-41 -7 -70 -7 -107 -7z" />
    <glyph glyph-name="i" unicode="i" horiz-adv-x="303" 
d="M240 69c0 -14 -2 -47 -5 -61c-8 -30 -26 -34 -55 -40c-25 -5 -52 -6 -77 -4c-62 6 -56 77 -54 122c2 41 7 81 9 122c4 36 5 73 8 112c2 35 18 48 54 47c16 -1 30 0 45 -1c48 -1 74 -22 76 -70c6 -76 2 -153 -1 -227zM61 484c-26 111 147 140 189 65
c26 -48 18 -125 -31 -142c-37 -13 -75 -13 -110 -4c-27 6 -41 26 -47 52c-1 12 0 24 -1 29z" />
    <glyph glyph-name="h" unicode="h" horiz-adv-x="636" 
d="M270 395c147 95 279 66 307 -108c15 -78 17 -158 14 -233c-2 -44 -15 -75 -60 -78c-27 0 -52 -2 -78 -2c-13 1 -30 3 -43 7c-36 9 -45 24 -44 66c2 30 7 60 9 89c1 22 3 48 -1 67c-2 19 -13 39 -36 44c-57 5 -74 -75 -74 -113c0 -34 0 -69 -1 -104
c-3 -44 -23 -60 -66 -61c-28 -1 -59 0 -86 4c-33 2 -54 20 -59 55c-3 25 -5 50 -4 73c9 186 15 375 6 561c-2 15 -6 30 -9 44c-9 37 4 59 40 67c43 8 88 9 132 -2c35 -10 49 -39 54 -71c2 -21 2 -42 2 -63c-2 -68 -2 -134 -4 -202c0 -14 0 -26 1 -40z" />
    <glyph glyph-name="g" unicode="g" horiz-adv-x="647" 
d="M376 144c-35 -16 -60 -28 -88 -41c-38 -18 -81 -19 -125 -9c-44 12 -79 35 -98 73c-19 39 -28 76 -24 117c5 64 20 123 61 176c19 26 43 49 73 65c46 23 96 33 142 14c55 -23 107 -18 162 -9c17 4 37 5 52 0c46 -14 66 -34 66 -71c0 -53 -2 -107 -2 -160
c-1 -57 0 -114 -5 -171c-2 -59 -5 -118 -18 -177c-18 -79 -76 -131 -164 -150c-65 -15 -180 -12 -234 20c-38 21 -65 48 -58 90c18 107 37 102 147 77c57 -14 96 9 105 63c4 29 4 58 8 93zM347 385c-50 13 -102 15 -114 -37c-5 -17 -5 -37 -3 -54c3 -29 18 -39 54 -40
c34 -1 51 9 56 37c4 31 4 62 7 94z" />
    <glyph glyph-name="f" unicode="f" horiz-adv-x="596" 
d="M328 108c-5 -110 5 -194 8 -278c2 -67 -162 -97 -195 -26c-9 18 -18 39 -20 60c-5 52 -6 103 -7 157c-2 29 -1 57 -1 85c-13 4 -23 5 -33 8c-41 8 -55 30 -51 74c3 37 32 64 66 60c3 -1 8 0 16 0c-3 105 -5 213 29 294c73 171 270 141 389 51c33 -26 44 -59 26 -96
c-20 -38 -45 -71 -81 -97c-23 -15 -40 -12 -64 4c-39 25 -56 44 -76 -15c-13 -41 -13 -102 -11 -137c33 -2 92 -3 126 -5c13 -1 27 -2 40 -5c31 -7 43 -26 39 -58s-21 -55 -52 -64c-26 -7 -76 -9 -103 -11c-15 -2 -28 -1 -45 -1z" />
    <glyph glyph-name="e" unicode="e" horiz-adv-x="520" 
d="M59 441c22 69 79 109 158 113c67 11 154 4 208 -35c32 -23 53 -58 54 -106c1 -40 0 -80 -1 -121c0 -44 -30 -86 -79 -86h-65h-51c-11 0 -24 -2 -24 -16c0 -15 7 -25 23 -25c32 -1 65 0 99 0c18 0 37 0 57 -1c20 -4 33 -17 33 -34c0 -24 0 -48 -4 -70
c-7 -31 -30 -52 -62 -63c-85 -28 -168 -29 -253 7c-59 26 -84 73 -101 130c-33 111 -8 264 8 307zM345 336c7 106 -85 81 -82 0h82z" />
    <glyph glyph-name="d" unicode="d" horiz-adv-x="621" 
d="M359 40c-71 -57 -159 -81 -244 -39c-105 50 -85 230 -64 317c29 124 175 166 289 136v26c2 76 6 153 9 229c1 24 10 44 33 52c65 21 186 36 196 -55c2 -44 5 -89 0 -133c-10 -132 -13 -264 -13 -396c0 -47 -3 -94 -7 -142c-4 -40 -29 -64 -66 -73
c-43 -11 -90 -17 -112 24c-8 17 -12 34 -21 54zM344 287c-146 7 -134 -171 7 -127c-2 41 -4 83 -7 127z" />
    <glyph glyph-name="b" unicode="b" horiz-adv-x="601" 
d="M260 479c100 31 256 9 290 -104c20 -72 24 -146 4 -220c-16 -69 -61 -108 -130 -127c-53 -14 -110 -17 -165 -7c-39 -75 -67 -59 -131 -59c-41 4 -68 26 -73 68c-8 42 -11 86 -11 129c-4 182 -15 366 -8 548c4 35 12 64 50 66c42 2 86 3 129 4c41 0 40 -48 40 -76l3 -201
c0 -7 2 -12 2 -21zM261 187c27 -5 51 -4 73 7c27 13 36 34 31 66c-4 29 -20 45 -48 48c-17 2 -36 0 -56 0v-121z" />
    <glyph glyph-name="a" unicode="a" horiz-adv-x="670" 
d="M423 113c-15 -10 -25 -19 -35 -28c-24 -17 -45 -39 -69 -56c-51 -34 -107 -42 -164 -25c-54 15 -87 50 -99 100c-29 103 -21 203 33 297c33 54 79 95 137 118c30 13 60 17 92 16c34 -4 66 -6 100 -7c9 0 20 3 28 8c40 26 87 27 133 16c27 -5 42 -22 42 -49
c1 -31 0 -59 1 -90c1 -60 1 -123 3 -183c1 -58 2 -118 2 -176v-8c-5 -57 -24 -75 -83 -77c-21 -1 -41 -1 -62 0c-12 0 -24 2 -34 6c-24 8 -33 17 -32 42c1 28 5 54 7 79c1 4 0 8 0 17zM256 248c8 -25 20 -34 48 -32c34 2 58 22 79 43c3 2 4 9 4 13c0 222 -153 48 -131 -24z
" />
    <glyph glyph-name="c" unicode="c" horiz-adv-x="544" 
d="M46 378c34 158 202 231 357 217c17 -2 35 -5 52 -8c6 -2 14 -3 20 -6c52 -20 47 -108 18 -154c-29 -48 -92 -15 -143 -22c-71 -10 -133 -52 -139 -127c-10 -100 111 -106 186 -102c55 5 78 -13 88 -39c18 -51 22 -131 -38 -153c-63 -21 -199 -16 -262 -1
c-158 40 -162 277 -139 395z" />
    <glyph glyph-name="underscore" unicode="_" horiz-adv-x="488" 
d="M414 82c31 -4 41 -20 36 -51c-5 -44 -21 -59 -65 -57c-46 1 -235 3 -283 6c-9 0 -18 3 -26 6c-14 4 -21 14 -22 29c-5 46 17 72 63 72c53 2 246 5 297 -5z" />
    <glyph glyph-name="Z" unicode="Z" horiz-adv-x="690" 
d="M414 576c-24 2 -43 4 -62 4c-52 1 -105 0 -157 1c-22 1 -44 6 -65 10c-18 5 -30 17 -31 37c-1 36 -1 72 0 108c6 30 50 44 75 43c40 -2 81 -4 121 -6c87 -4 174 -7 261 -12c18 0 36 -3 54 -5c16 -2 26 -12 30 -26c6 -18 11 -37 14 -56c5 -34 -5 -65 -28 -91
c-120 -134 -230 -260 -314 -406h38c44 2 89 3 133 5l93 6c50 2 74 -19 72 -69c-1 -24 -5 -48 -11 -72c-9 -38 -40 -51 -74 -56c-151 -20 -315 -28 -454 0c-27 6 -47 21 -55 49c-6 25 -7 49 -7 75c1 32 16 57 32 82c94 151 192 265 335 379z" />
    <glyph glyph-name="Y" unicode="Y" horiz-adv-x="666" 
d="M276 309c-123 -18 -206 -9 -235 131c-19 92 -12 207 -14 258c0 11 1 22 2 33c6 32 26 52 58 56c47 8 181 13 181 -57c0 -40 -5 -80 -7 -120c-20 -230 52 -195 101 -75c27 67 35 132 54 194c11 31 35 49 68 50c29 1 58 -1 86 -6c45 -9 69 -43 64 -88
c-11 -92 -42 -172 -68 -255c-42 -140 -89 -273 -139 -410c-13 -35 -38 -47 -72 -48c-40 -1 -79 2 -117 13c-32 10 -44 25 -46 58c-2 30 4 58 15 86c20 54 42 108 63 162c2 5 3 10 6 18z" />
    <glyph glyph-name="X" unicode="X" horiz-adv-x="648" 
d="M181 392c-36 72 -68 140 -101 207c-14 29 -23 58 -25 90c-3 38 11 57 48 68c22 6 43 15 65 21c41 11 57 4 77 -33c19 -31 35 -66 51 -99c5 -8 10 -17 15 -24c30 42 59 83 88 123c14 19 33 32 57 38c45 10 84 -2 115 -36c27 -30 27 -83 3 -114c-7 -10 -16 -18 -23 -28
c-27 -31 -52 -60 -76 -92c-17 -21 -29 -46 -45 -67c-13 -17 -15 -30 -4 -49c42 -73 90 -143 143 -208c13 -17 26 -34 37 -52c24 -43 17 -77 -22 -108c-12 -10 -25 -17 -39 -22c-54 -20 -75 -16 -111 29c-36 42 -69 87 -103 130c-6 8 -13 16 -23 29
c-20 -55 -61 -138 -82 -187c-19 -37 -44 -49 -84 -40c-16 3 -33 4 -46 11c-79 36 -83 73 -57 132c19 43 103 210 124 252c6 11 12 20 18 29z" />
    <glyph glyph-name="W" unicode="W" horiz-adv-x="912" 
d="M464 150c-14 -24 -25 -44 -37 -63c-30 -50 -73 -87 -137 -99c-139 -24 -227 58 -237 177c-5 49 -8 98 -8 149c-1 94 1 250 5 345c1 37 9 97 54 106c29 5 59 9 89 12c76 7 88 -64 85 -112c-5 -83 -10 -166 -15 -250c-2 -47 -6 -95 -7 -142c-4 -63 38 -48 54 -7
c13 37 24 72 33 109c11 45 19 90 27 137c4 25 19 42 46 47c30 5 62 7 93 6c24 0 34 -19 37 -37c2 -16 0 -32 2 -48c5 -35 14 -251 75 -235c55 13 50 169 49 208c-3 74 -8 148 -12 221c0 8 -2 15 -2 22c2 38 14 54 55 61c35 6 70 6 104 -4c28 -8 47 -23 50 -51
c4 -23 7 -45 6 -67c-3 -190 1 -340 -21 -489c-19 -107 -81 -155 -164 -158c-154 -4 -177 57 -224 162z" />
    <glyph glyph-name="V" unicode="V" horiz-adv-x="635" 
d="M324 188c29 127 41 254 58 380c6 47 15 95 23 142c7 39 19 50 57 55c32 4 64 1 95 -10c40 -13 50 -28 46 -69c-3 -28 -8 -56 -14 -83c-16 -74 -34 -147 -48 -220c-22 -113 -39 -221 -70 -332c-9 -33 -36 -62 -67 -69c-7 -2 -15 -3 -23 -3c-41 -4 -82 8 -123 4
c-26 -2 -46 9 -58 30c-11 18 -21 37 -28 57c-49 149 -83 303 -119 456c-13 57 -21 115 -26 172c-4 46 10 59 56 63c29 3 58 5 88 6c32 0 45 -8 55 -40c9 -34 16 -68 21 -103c17 -100 32 -200 47 -300c5 -34 10 -67 15 -101c2 -12 4 -23 7 -35h8z" />
    <glyph glyph-name="U" unicode="U" horiz-adv-x="596" 
d="M50 722c5 41 34 47 68 48c46 0 84 6 124 6c61 0 43 -69 35 -106c-19 -85 -59 -348 -34 -446c24 -85 85 -67 106 4c34 104 1 382 -3 482c-2 44 28 65 93 57c25 -2 50 -4 75 -9c32 -6 42 -15 43 -48c7 -146 11 -360 -22 -528c-12 -59 -34 -176 -103 -192
c-86 -20 -162 -20 -242 -11c-81 14 -117 80 -134 153c-41 176 -31 427 -6 590z" />
    <glyph glyph-name="T" unicode="T" horiz-adv-x="524" 
d="M169 597c-32 0 -59 0 -86 -1c-21 0 -34 9 -41 28c-13 40 -14 81 -10 122c2 22 20 36 40 41c32 8 64 16 97 17c80 3 161 1 241 1c6 0 12 0 18 -1c43 -5 58 -19 62 -63c2 -30 2 -60 1 -90c-3 -33 -23 -52 -57 -56c-21 -2 -42 -3 -66 -6c-1 -27 -2 -55 -3 -83
c-4 -135 -3 -269 4 -403c2 -29 -1 -59 -2 -88c0 -8 -3 -16 -5 -23c-7 -23 -22 -36 -46 -36c-41 1 -82 3 -123 6c-35 4 -48 20 -48 54c1 39 4 78 6 117c4 72 8 144 11 217c3 71 5 142 7 213v34z" />
    <glyph glyph-name="S" unicode="S" horiz-adv-x="542" 
d="M74 66c-2 38 17 72 44 77c42 7 93 -24 131 -9c36 14 40 71 11 110c-80 106 -212 159 -215 301c-3 160 102 246 252 265c54 7 111 3 163 -8c11 -2 22 -8 33 -12c19 -9 27 -26 24 -45c-7 -35 -13 -71 -24 -105c-12 -37 -35 -46 -73 -38c-17 4 -34 8 -50 12
c-118 33 -151 -67 -80 -138c81 -80 202 -160 211 -291c16 -222 -242 -287 -378 -232c-47 19 -46 67 -49 113z" />
    <glyph glyph-name="R" unicode="R" 
d="M447 286c30 -33 59 -65 88 -97c25 -29 49 -58 73 -88c21 -25 21 -40 -4 -62c-32 -29 -67 -54 -110 -66c-23 -7 -46 -3 -63 16c-8 10 -16 21 -23 32l-117 186c-3 6 -7 12 -14 23c-1 -12 -2 -18 -2 -24c0 -51 2 -103 0 -154c-3 -60 -25 -80 -85 -81c-32 -1 -64 0 -96 6
c-41 8 -55 28 -54 71c2 48 5 96 8 144c9 144 13 289 3 433c-2 31 -2 62 -5 93c-4 85 278 62 321 54c28 -5 56 -13 84 -23c91 -31 140 -97 147 -193c2 -32 2 -64 -2 -96c-11 -87 -58 -147 -149 -174zM271 421c183 -85 191 241 0 156v-156z" />
    <glyph glyph-name="Q" unicode="Q" 
d="M562 43c8 -10 25 -34 30 -43c12 -25 4 -36 -11 -53c-12 -14 -28 -28 -45 -36c-41 -24 -77 26 -102 58l-19 26c-131 -14 -344 5 -364 137c-22 135 -28 273 -23 408c2 93 52 209 157 232c65 15 131 15 197 17l73 2c62 0 121 -40 133 -95c39 -171 32 -418 -8 -587
c-6 -21 -15 -39 -28 -53c4 -4 7 -9 10 -13zM386 490c-1 33 -12 64 -40 78c-54 22 -111 -1 -117 -54c-11 -89 -10 -176 7 -257c2 -13 13 -31 24 -37c52 -32 112 -8 121 47c13 77 7 151 5 223z" />
    <glyph glyph-name="P" unicode="P" horiz-adv-x="615" 
d="M263 173c0 -29 1 -71 0 -98c-3 -85 -32 -114 -118 -113c-22 0 -44 5 -64 12c-31 10 -49 33 -47 68c2 32 7 63 9 96c4 107 11 232 13 339c1 65 -4 128 -6 193c0 4 0 8 -2 13c-6 35 6 62 38 77c21 10 44 17 67 20c89 10 178 10 265 -12c32 -8 62 -20 88 -41
c105 -86 102 -438 -17 -505c-61 -32 -125 -44 -193 -48c-9 0 -19 -1 -33 -1zM280 345c63 -6 85 9 99 64c12 46 8 93 -1 138c-8 38 -51 54 -84 34c-6 -3 -11 -11 -13 -17c-3 -10 -5 -20 -4 -31c0 -63 2 -125 3 -188z" />
    <glyph glyph-name="O" unicode="O" 
d="M580 109c-16 -57 -57 -87 -115 -106c-116 -25 -391 -22 -414 129c-22 135 -28 273 -23 408c2 93 52 209 157 232c65 15 131 15 197 17c24 1 48 1 73 2c62 0 121 -40 133 -95c39 -171 32 -418 -8 -587zM386 490c-1 33 -12 64 -40 78c-54 22 -111 -1 -117 -54
c-11 -89 -10 -176 7 -257c2 -13 13 -31 24 -37c52 -32 112 -8 121 47c13 77 7 151 5 223z" />
    <glyph glyph-name="N" unicode="N" horiz-adv-x="698" 
d="M239 340c0 -28 -2 -50 0 -72c0 -64 1 -130 2 -194c0 -4 0 -9 -1 -13c-7 -54 -19 -67 -77 -73c-28 -2 -56 -1 -84 0c-25 3 -38 14 -41 40c-3 23 -4 45 -4 68c0 142 1 286 2 428c1 64 0 128 1 191c1 40 12 51 56 55c13 2 27 4 41 4c49 0 88 -15 109 -59
c30 -59 64 -117 95 -176c30 -54 67 -102 102 -154c4 0 6 1 8 2v34c-1 81 -3 163 -4 244c0 17 2 33 4 49c7 28 19 39 50 41c26 1 53 2 79 1c42 -1 55 -9 59 -48c8 -59 13 -119 15 -178c2 -109 3 -221 4 -332c0 -44 -3 -89 -6 -135c-2 -33 -30 -60 -65 -67c-2 -1 -4 -1 -7 -1
c-63 -15 -109 4 -142 57c-57 89 -120 177 -180 264c-4 7 -10 13 -16 24z" />
    <glyph glyph-name="M" unicode="M" horiz-adv-x="820" 
d="M487 240c-13 -39 -29 -55 -70 -55c-37 0 -67 12 -86 48c-19 35 -42 71 -63 104c-4 5 -7 9 -16 19c0 -32 -3 -57 0 -81c6 -77 1 -147 -5 -224c-1 -12 -4 -24 -8 -35c-7 -20 -20 -34 -41 -36c-32 -4 -65 -8 -98 -6c-45 5 -59 21 -58 66c2 100 7 193 9 294
c2 103 2 206 5 310c1 22 3 44 7 65c4 25 21 40 46 48c32 11 62 9 94 3c26 -5 45 -18 58 -42c46 -90 95 -180 144 -270c2 -5 5 -11 11 -23c8 19 16 32 21 46c32 82 68 160 114 237c20 36 49 56 92 53c28 -1 55 -2 82 -5c25 -3 41 -19 44 -44c2 -16 4 -33 2 -49
c-6 -155 -9 -310 -2 -465c2 -40 6 -81 7 -121c0 -74 -17 -89 -94 -98c-27 -3 -57 -1 -84 8c-50 14 -59 38 -56 78c6 122 13 220 13 309c-28 -38 -59 -112 -68 -134z" />
    <glyph glyph-name="L" unicode="L" horiz-adv-x="449" 
d="M33 629c-1 34 1 67 7 101c6 33 28 50 61 50c33 -1 67 -2 100 -8c37 -6 54 -28 56 -68c8 -170 -1 -326 -6 -481c0 -12 0 -24 2 -35c6 -34 23 -46 54 -41c14 2 28 5 42 5c34 0 54 -16 61 -51c4 -17 5 -36 5 -54c0 -32 -16 -53 -45 -60c-9 -3 -18 -4 -27 -4
c-64 -2 -130 -9 -195 -5c-76 5 -102 41 -103 123c0 178 -9 350 -12 528z" />
    <glyph glyph-name="K" unicode="K" horiz-adv-x="644" 
d="M259 267c3 -60 0 -137 2 -197c1 -48 -29 -79 -77 -82c-23 -1 -46 0 -68 1c-64 5 -69 88 -70 131c-5 87 0 193 -4 281c-3 79 -5 159 -9 239c-2 44 -5 126 41 126c24 0 65 7 90 8c55 1 82 -20 86 -75c4 -51 4 -101 5 -152c1 -17 0 -34 0 -51c3 -1 5 -1 7 -2
c5 6 11 12 17 19c50 64 99 129 150 193c11 14 26 28 40 39c50 39 160 -59 138 -106c-36 -86 -122 -163 -183 -228c63 -84 115 -175 161 -272c38 -74 2 -125 -82 -132c-49 -6 -80 11 -102 56c-12 27 -23 54 -33 81c-18 45 -39 89 -66 130c-16 25 -45 37 -43 -7z" />
    <glyph glyph-name="J" unicode="J" horiz-adv-x="624" 
d="M52 133c-35 105 -18 240 32 324c18 32 44 52 83 35c26 -13 55 -26 78 -42c34 -24 39 -53 22 -90c-14 -29 -30 -58 -40 -89c-34 -101 114 -131 132 15c16 150 -19 301 -34 420c-6 42 11 57 50 72c36 14 73 14 112 14c22 -1 33 -16 42 -35c54 -120 68 -399 44 -524
c-15 -83 -48 -150 -100 -194c-117 -100 -363 -80 -421 94z" />
    <glyph glyph-name="I" unicode="I" horiz-adv-x="305" 
d="M265 357c0 -78 1 -157 0 -235c0 -18 -1 -41 -3 -59c-6 -48 -35 -76 -83 -80c-26 -2 -52 3 -78 3c-45 0 -60 58 -60 93c-2 175 -1 418 -1 593v6c11 81 27 93 102 97c19 0 38 1 57 1c30 0 50 -16 57 -44c5 -17 8 -35 8 -53v-322h1z" />
    <glyph glyph-name="H" unicode="H" horiz-adv-x="668" 
d="M247 582c2 -44 3 -88 5 -132c2 -27 4 -28 29 -28c21 1 42 1 63 2c36 3 43 12 42 47c-2 64 -1 161 12 223c1 8 3 16 5 24c15 50 32 64 84 63c25 -1 51 -4 75 -10c32 -9 61 -27 59 -78c-3 -53 -5 -139 -4 -191c0 -88 3 -177 5 -265c1 -49 3 -127 4 -176c1 -9 0 -18 -1 -27
c-7 -47 -30 -66 -77 -66c-22 -1 -45 -2 -66 0c-17 2 -34 8 -49 15c-17 7 -24 22 -25 41c-1 51 -3 131 -6 182c0 15 -2 30 -4 45c-1 13 -8 22 -20 22c-29 0 -59 2 -87 -3c-32 -5 -37 -16 -35 -48c2 -44 3 -89 4 -133c1 -14 0 -28 -2 -42c-7 -51 -36 -76 -88 -74
c-21 1 -42 5 -62 12c-46 17 -66 47 -65 97c2 75 9 150 8 225c0 120 -5 239 -9 358c-1 12 -4 24 -6 36c-5 30 6 49 35 57c42 13 85 14 128 10c16 -1 27 -9 33 -23c6 -17 13 -34 14 -52c2 -37 1 -74 1 -111v0z" />
    <glyph glyph-name="G" unicode="G" horiz-adv-x="666" 
d="M62 648c14 57 45 99 101 125c45 21 91 36 142 36c57 1 115 4 171 -8c55 -11 91 -41 108 -93c17 -47 21 -96 15 -145c-5 -46 -27 -64 -74 -65c-22 -2 -44 3 -66 3c-15 1 -21 9 -24 25c-9 39 -37 62 -78 69c-73 13 -117 -74 -123 -129c-7 -66 -11 -132 3 -198
c15 -79 74 -106 156 -87c41 11 44 57 46 89c3 16 -6 23 -23 24c-20 0 -41 1 -62 1c-43 0 -54 9 -60 51c-3 16 -3 33 -4 49c-1 20 11 33 29 40c11 3 23 6 35 7c51 4 103 8 155 10c57 3 81 -15 94 -69c35 -125 30 -367 -122 -403c-97 -23 -229 -27 -317 9
c-54 23 -84 69 -101 125c-48 171 -41 369 -1 534z" />
    <glyph glyph-name="F" unicode="F" horiz-adv-x="545" 
d="M492 531c-34 -40 -82 -8 -122 2c-20 6 -80 31 -80 -8c0 -31 0 -62 5 -90c6 -34 12 -37 51 -37c18 0 37 1 55 1c14 0 28 0 43 -2c26 -3 44 -18 49 -41c7 -35 5 -71 -7 -105c-9 -25 -33 -34 -60 -34c-25 0 -51 4 -77 5c-64 2 -66 -1 -67 -58c-1 -45 -4 -89 -6 -134
c0 -9 -1 -19 -4 -28c-4 -19 -18 -34 -43 -39c-46 -8 -92 -6 -137 3c-31 7 -51 26 -53 55c-1 31 -2 64 3 96c26 157 24 312 20 467c-1 37 -7 73 -13 108c-7 47 25 74 78 73c91 -2 183 0 274 0c4 0 9 1 14 1c72 3 102 -22 103 -82c0 -61 3 -115 -26 -153z" />
    <glyph glyph-name="E" unicode="E" horiz-adv-x="570" 
d="M290 597c-19 -51 -21 -99 -21 -149c17 -3 31 -6 47 -7c32 -1 64 0 97 -1c27 0 39 -9 41 -33c2 -27 1 -55 0 -82c-1 -17 -16 -29 -32 -30c-34 -3 -67 -3 -101 -3c-15 0 -46 -1 -62 0c-16 -102 -4 -136 54 -145c33 -5 100 3 141 0c36 -2 53 -15 56 -48c4 -26 1 -53 1 -79
c0 -24 -14 -38 -39 -43c-13 -4 -30 -6 -44 -6c-44 1 -107 1 -164 2c-245 9 -228 155 -217 350c2 58 9 115 12 173c3 51 4 103 8 153c3 61 41 128 105 128c112 1 210 -19 320 -25c51 -4 47 -168 -32 -168c-59 0 -118 4 -170 13z" />
    <glyph glyph-name="D" unicode="D" horiz-adv-x="666" 
d="M261 14c-19 -52 -61 -57 -109 -51c-25 3 -51 5 -75 17c-25 13 -38 32 -37 60c2 55 2 110 4 166c5 133 8 266 -3 400c-2 36 -3 72 -3 108c-1 41 10 64 63 71c22 3 45 5 68 5c42 0 79 -9 91 -56c120 22 257 53 315 -74c90 -189 74 -711 -235 -659c-26 4 -51 8 -79 13z
M263 223c17 -6 32 -15 48 -16c122 -10 137 184 101 280c-24 65 -142 69 -142 0c1 -54 0 -108 -1 -162c-1 -33 -4 -66 -6 -102z" />
    <glyph glyph-name="C" unicode="C" horiz-adv-x="637" 
d="M92 639c69 138 246 170 379 150c27 -5 53 -14 81 -22c48 -15 61 -51 51 -94c-7 -32 -23 -62 -37 -90c-14 -27 -40 -33 -70 -23c-14 6 -29 11 -42 17c-52 28 -146 9 -188 -59c-40 -63 -51 -133 -37 -205c12 -58 65 -90 112 -91c48 0 91 14 134 34c8 4 17 9 26 11
c22 8 46 7 62 -12c43 -47 66 -143 22 -207c-23 -31 -54 -45 -90 -49c-93 -12 -187 -9 -276 27c-113 45 -170 133 -183 251c-16 125 1 253 56 362z" />
    <glyph glyph-name="B" unicode="B" horiz-adv-x="653" 
d="M457 433c10 -3 17 -6 24 -8c66 -18 105 -62 122 -126c16 -62 22 -126 5 -190c-19 -74 -65 -112 -141 -118c-119 -9 -216 -8 -325 -4l-42 3c-35 2 -42 7 -45 43c-3 35 -3 70 -4 105c-5 182 -11 363 -16 545c-2 97 87 105 180 113c171 14 319 -50 324 -198
c2 -62 -17 -130 -82 -165zM276 150c46 -6 167 -9 163 57c-8 74 -112 59 -163 62v-119zM253 502c17 0 32 0 47 1c41 2 69 44 70 79c2 67 -100 62 -133 47c4 -39 12 -87 16 -127z" />
    <glyph glyph-name="A" unicode="A" horiz-adv-x="730" 
d="M442 128h-164c0 -12 0 -24 -1 -35c0 -20 1 -41 -1 -60c-4 -29 -18 -42 -47 -41c-45 0 -90 3 -135 4c-16 1 -20 11 -21 24c-6 60 -13 120 -18 180c-5 59 -10 118 -12 177c-3 70 4 140 21 209c27 110 98 172 207 192c72 13 145 21 218 14c66 -6 119 -36 150 -97
c22 -42 35 -87 41 -134c11 -86 11 -173 4 -259c-7 -93 -17 -186 -27 -279c-2 -26 -7 -30 -32 -36c-10 -2 -22 -2 -33 -2c-35 2 -70 3 -105 6c-13 1 -28 4 -40 10c-16 6 -19 16 -16 34c4 29 7 59 11 93zM449 263c0 29 0 56 -1 84c-1 46 -1 93 -15 137c-7 21 -16 42 -30 58
c-31 38 -77 36 -103 -5c-14 -22 -23 -47 -29 -72c-13 -64 -6 -128 -4 -192c0 -3 2 -6 4 -11c58 -1 116 -14 178 1z" />
    <glyph glyph-name="at" unicode="@" horiz-adv-x="768" 
d="M564 362c8 48 12 96 0 142c-20 72 -117 83 -176 81c-76 -2 -124 -21 -149 -92c-28 -78 -35 -158 -22 -240c9 -51 40 -85 94 -98c72 -19 145 -23 219 -8c42 10 64 -5 67 -48c9 -79 -10 -101 -79 -121c-20 -6 -39 -10 -59 -10c-64 0 -128 1 -192 5c-99 7 -163 60 -195 152
c-22 58 -24 119 -27 180c-5 81 6 160 26 238c29 126 111 200 240 222c65 12 131 16 197 6c77 -12 141 -53 173 -125c44 -106 55 -219 30 -333c-19 -105 -140 -137 -228 -110c-12 5 -23 15 -38 24c-27 -14 -59 -16 -92 -15c-52 3 -81 25 -96 74c-15 51 -10 103 6 153
c13 38 44 58 79 68c54 19 108 9 156 -18c31 -17 45 -46 44 -80c0 -24 -6 -108 22 -47zM416 398c-20 2 -33 -2 -42 -15c-9 -11 -6 -26 5 -31c20 -10 38 2 38 24c1 7 0 14 -1 22z" />
    <glyph glyph-name="exclam" unicode="!" horiz-adv-x="286" 
d="M188 191c-12 -33 -33 -46 -67 -42c-74 6 -75 75 -75 132c2 87 7 174 8 261c3 74 1 148 1 222c-1 23 8 40 28 49c26 13 54 23 83 21c38 -4 60 -20 66 -58c25 -171 7 -433 -44 -585zM113 88c71 11 102 -90 31 -131c-10 -4 -23 -5 -34 -5c-49 2 -72 33 -62 80c1 3 1 5 1 7
c11 39 23 49 64 49z" />
    <glyph glyph-name="quotedbl" unicode="&#x22;" horiz-adv-x="424" 
d="M200 716c1 -31 -6 -62 -21 -89c-18 -34 -77 -46 -107 -21c-13 10 -17 24 -17 40c-1 18 0 36 -1 53c0 15 -2 29 -4 42c-8 42 17 74 60 75c54 0 84 -29 89 -82c0 -5 1 -12 1 -18zM380 716c1 -31 -6 -62 -21 -89c-18 -34 -77 -46 -107 -21c-13 10 -17 24 -17 40
c-1 18 0 36 -1 53c0 15 -2 29 -4 42c-8 42 17 74 60 75c54 0 84 -29 89 -82c0 -5 1 -12 1 -18z" />
    <glyph glyph-name="dollar" unicode="$" horiz-adv-x="472" 
d="M312 95v-90c-3 -36 -11 -43 -51 -45c-17 -1 -33 -1 -51 0c-38 2 -48 11 -49 51c0 25 3 47 5 76c-19 1 -39 2 -57 4c-43 3 -60 17 -70 53c-5 15 -8 31 -10 46c-4 51 25 77 75 77c21 0 39 -1 58 1c46 5 15 23 -12 27c-65 12 -98 51 -113 107c-8 35 -13 75 -8 108
c13 85 86 119 154 136c0 18 1 39 4 61c1 28 3 31 34 34c21 2 44 2 65 1c19 0 30 -10 30 -29c-1 -19 -3 -36 -4 -61h49c56 -2 78 -29 78 -71c-1 -27 1 -53 -11 -76c-7 -13 -17 -21 -34 -22c-39 0 -78 -3 -116 -6c-44 -1 -81 -13 -77 -54c3 -20 15 -29 43 -33
c25 -4 49 -6 75 -9c58 -3 90 -28 97 -85c3 -17 4 -36 5 -55c4 -116 -29 -130 -109 -146z" />
    <glyph glyph-name="percent" unicode="%" horiz-adv-x="669" 
d="M418 692c34 -9 67 -17 99 -31c27 -9 32 -23 27 -54c-4 -15 -9 -32 -16 -46c-43 -94 -83 -186 -124 -279c-30 -71 -56 -146 -83 -217c-3 -10 -7 -23 -12 -34c-22 -45 -54 -60 -99 -44c-21 8 -39 14 -61 22c-37 19 -47 39 -33 79c10 28 22 55 33 82c72 143 132 291 195 437
c12 36 33 82 74 85zM280 499c-7 -24 -21 -43 -43 -53c-40 -17 -83 -25 -126 -12c-41 15 -69 42 -70 87c-2 28 -2 56 0 84c7 37 27 66 63 76c41 12 78 20 118 11c32 -8 52 -27 60 -58c10 -57 11 -80 -2 -135zM162 576c-13 -1 -17 -12 -17 -24c2 -13 12 -16 22 -15
c30 6 34 39 -5 39zM630 95c-15 -62 -53 -92 -118 -88c-19 2 -39 5 -57 11c-38 11 -62 43 -62 81c0 29 5 59 9 87c10 45 44 71 88 79c31 7 62 1 92 -9c30 -12 47 -34 51 -65c2 -35 6 -64 -3 -96zM495 132c-1 -13 6 -23 19 -24c14 -1 26 8 28 20c2 15 -42 34 -47 4z" />
    <glyph glyph-name="ampersand" unicode="&#x26;" horiz-adv-x="695" 
d="M120 437c23 19 23 21 10 48c-68 152 -52 284 122 319c139 29 321 -27 275 -196c-14 -50 -38 -92 -74 -129c-19 -20 -36 -38 -51 -59c-22 -30 -22 -69 -1 -97c5 -6 13 -12 20 -15c12 -4 23 2 23 15c1 15 -1 30 -5 42c-14 37 0 57 36 67c45 12 94 19 122 -24
c23 -34 31 -72 20 -112c-8 -24 -18 -46 -28 -69c-16 -32 -15 -41 8 -68c16 -14 31 -29 44 -45c39 -53 7 -123 -59 -130c-8 0 -17 2 -25 6c-16 9 -34 19 -48 29c-20 16 -38 17 -57 2c-83 -54 -206 -68 -292 -19c-135 77 -159 335 -40 435zM297 537c21 23 41 43 58 64
c14 20 10 44 -7 54c-33 16 -76 -6 -78 -41c-2 -27 4 -51 27 -77zM281 240c-32 -20 -46 -60 -31 -89c4 -8 13 -14 20 -16c19 -6 37 -4 55 7c20 13 25 28 8 47c-16 18 -34 35 -52 51z" />
    <glyph glyph-name="quotesingle" unicode="'" horiz-adv-x="243" 
d="M200 716c1 -31 -6 -62 -21 -89c-18 -34 -77 -46 -107 -21c-13 10 -17 24 -17 40c-1 18 0 36 -1 53c0 15 -2 29 -4 42c-8 42 17 74 60 75c54 0 84 -29 89 -82c0 -5 1 -12 1 -18z" />
    <glyph glyph-name="parenleft" unicode="(" horiz-adv-x="451" 
d="M123 671c31 63 82 168 138 202c29 17 62 19 89 -9c19 -19 38 -38 55 -58c30 -36 -7 -78 -25 -104c-43 -59 -78 -123 -105 -190c-22 -58 -31 -117 -30 -177c1 -73 34 -129 81 -179c13 -12 27 -26 42 -39s21 -31 21 -51c-1 -38 -9 -73 -28 -104c-23 -37 -55 -48 -92 -27
c-256 149 -257 510 -146 736z" />
    <glyph glyph-name="parenright" unicode=")" horiz-adv-x="451" 
d="M338 135c-31 -63 -82 -168 -138 -202c-29 -17 -62 -19 -89 9c-19 19 -38 38 -55 58c-30 36 7 78 25 104c43 59 78 123 105 190c22 58 31 117 30 177c-1 73 -34 129 -81 179c-13 12 -27 26 -42 39s-21 31 -21 51c1 38 9 73 28 104c23 37 55 48 92 27
c256 -149 257 -510 146 -736z" />
    <glyph glyph-name="plus" unicode="+" horiz-adv-x="360" 
d="M245 266c-2 -14 -4 -28 -7 -44c-5 -25 -14 -35 -40 -36c-7 -1 -14 -1 -21 0c-36 3 -47 17 -49 53c0 7 -1 14 -1 22h-39c-22 0 -34 9 -37 29c-1 18 6 43 23 45c12 2 36 0 50 0c1 19 1 34 3 51c5 37 99 46 109 7c5 -14 7 -29 11 -44h30c19 -2 30 -11 34 -30
c3 -20 -3 -37 -21 -43c-14 -6 -29 -8 -45 -10z" />
    <glyph glyph-name="comma" unicode="," horiz-adv-x="273" 
d="M228 54c0 -68 -49 -130 -114 -146c-9 -2 -21 -2 -31 0c-20 5 -27 14 -24 35c2 15 6 30 10 47c4 19 2 37 -10 53c-40 59 38 118 92 108c52 -9 81 -46 77 -97z" />
    <glyph glyph-name="hyphen" unicode="-" horiz-adv-x="369" 
d="M276 360c31 -4 41 -20 36 -51c-5 -44 -21 -59 -65 -57c-46 1 -97 3 -145 6c-9 0 -18 3 -26 6c-14 4 -21 14 -22 29c-5 46 17 72 63 72c53 2 108 5 159 -5z" />
    <glyph glyph-name="period" unicode="." horiz-adv-x="271" 
d="M94 -4c-52 18 -72 80 -39 125c21 31 94 40 128 31c41 -9 53 -27 54 -72c0 -11 -3 -22 -7 -33c-20 -60 -85 -71 -136 -51z" />
    <glyph glyph-name="zero" unicode="0" horiz-adv-x="470" 
d="M407 107c-12 -69 -57 -119 -118 -133c-41 -10 -89 -5 -128 -1c-121 16 -127 137 -131 233c-4 86 -3 175 0 262c2 107 40 209 144 222c66 7 206 20 240 -84c22 -70 33 -339 -7 -499zM263 495c-6 62 -67 68 -76 -5c-11 -79 -14 -191 -4 -261c15 -106 60 -70 71 6
c10 91 15 178 9 260z" />
    <glyph glyph-name="one" unicode="1" horiz-adv-x="350" 
d="M120 402c-38 3 -55 27 -65 60c-2 6 -6 12 -9 18c-43 69 27 135 65 185c20 24 44 38 75 34c14 -1 27 -1 38 2c45 5 91 -30 89 -88c-3 -59 -2 -117 -3 -175c-2 -114 5 -256 2 -373c-3 -54 -26 -84 -83 -94c-23 -2 -49 -4 -74 -2c-59 5 -61 51 -55 102c15 114 29 225 20 331
z" />
    <glyph glyph-name="two" unicode="2" horiz-adv-x="481" 
d="M328 190c18 -1 35 0 51 -2c39 -5 62 -29 63 -66c1 -29 0 -61 -7 -89c-9 -40 -27 -50 -69 -49c-55 1 -109 -4 -161 -11c-45 -6 -89 -4 -128 25c-59 63 -1 198 53 246c57 55 112 114 150 185c37 68 -13 108 -60 39c-8 -12 -15 -25 -24 -39c-21 -32 -58 -39 -91 -17
c-23 14 -42 31 -61 49c-7 8 -14 20 -14 33c-3 30 6 62 24 91c115 186 427 120 392 -88c-12 -76 -49 -166 -94 -227c-28 -40 -50 -76 -24 -80z" />
    <glyph glyph-name="three" unicode="3" horiz-adv-x="499" 
d="M341 390c184 -105 167 -416 -75 -427c-56 -3 -122 10 -190 41c-35 24 -43 39 -34 77c7 22 15 44 28 63c24 34 57 40 90 16c17 -10 32 -17 53 -17c92 8 90 120 16 148c-10 6 -24 8 -35 15c-42 22 -54 54 -28 90c22 34 56 53 86 74c16 18 18 40 6 57
c-29 42 -85 -7 -112 -23c-61 -44 -91 27 -106 68c-13 25 -9 49 15 63c125 80 344 108 364 -74c0 -66 -31 -127 -78 -171z" />
    <glyph glyph-name="four" unicode="4" horiz-adv-x="573" 
d="M317 105c-69 0 -110 -1 -136 -1c-84 0 -130 27 -136 92c-11 129 37 320 87 435c21 86 101 112 207 79c76 -30 66 -84 38 -135c-28 -56 -57 -115 -85 -173c-17 -36 -31 -76 -42 -115c-12 -46 68 -34 89 -34c6 61 5 98 5 163c0 35 12 49 45 55c15 3 35 5 51 5
c90 0 92 -59 92 -122c2 -69 -1 -192 -4 -258c0 -78 -19 -120 -66 -133c-56 -14 -146 -17 -145 66c-2 24 0 47 0 76z" />
    <glyph glyph-name="five" unicode="5" horiz-adv-x="507" 
d="M221 512v-42c58 -2 117 -17 161 -50c140 -105 101 -394 -52 -452c-58 -21 -130 -25 -201 -14c-52 9 -81 48 -83 102c0 19 0 41 1 61c3 42 18 58 58 62c15 0 27 -1 40 -2c15 -1 31 -4 46 -4c76 3 91 130 14 133c-20 1 -40 5 -62 7c-51 6 -78 28 -83 82
c-5 67 -8 135 -7 203c0 52 33 85 87 96c18 3 37 7 56 8c63 1 130 3 193 3c56 0 78 -24 82 -80c1 -8 1 -17 1 -26c-4 -61 -14 -86 -96 -89c-56 -3 -105 2 -155 2z" />
    <glyph glyph-name="six" unicode="6" horiz-adv-x="564" 
d="M265 442c21 1 31 4 43 6c88 12 149 -21 188 -98c41 -90 40 -182 -6 -264c-41 -77 -108 -125 -201 -130c-41 -1 -78 3 -115 15c-61 21 -97 63 -117 121c-22 59 -22 119 -20 181c8 120 48 231 94 340c20 46 61 84 113 74c23 -7 50 -12 72 -21c31 -11 42 -35 32 -64
c-8 -23 -24 -47 -34 -73c-15 -24 -30 -53 -49 -87zM309 300c-42 10 -65 1 -85 -35c-22 -40 -18 -82 3 -123c16 -25 43 -33 74 -29c68 8 85 168 8 187z" />
    <glyph glyph-name="seven" unicode="7" horiz-adv-x="531" 
d="M204 518c-35 -1 -70 -6 -105 -10c-24 -2 -43 6 -49 29c-8 26 -15 53 -18 78c-4 29 13 53 45 59c31 6 64 7 95 10c90 9 183 17 260 -13c58 -23 71 -76 59 -138c-20 -87 -43 -154 -65 -224c14 -1 23 -1 32 -1c17 -1 27 -9 28 -23c2 -19 3 -41 -1 -59
c-2 -22 -17 -34 -41 -38c-20 -2 -40 -5 -64 -10c-11 -37 -24 -74 -34 -111c-6 -23 -9 -43 -16 -65c-12 -45 -44 -68 -92 -67c-30 3 -60 9 -88 15c-31 9 -46 31 -40 64c7 26 16 47 25 69c10 31 25 61 37 94c-18 0 -30 -1 -44 0c-30 0 -48 16 -52 45c-3 53 -1 81 71 79
c19 0 38 2 56 4c11 0 18 3 22 17c16 48 33 92 49 139c36 76 -25 60 -70 57z" />
    <glyph glyph-name="eight" unicode="8" horiz-adv-x="570" 
d="M134 316c-149 175 -89 366 141 378c102 5 244 -15 255 -133c11 -100 -9 -155 -91 -246c81 -80 92 -167 63 -262c-10 -30 -32 -52 -61 -68c-85 -39 -159 -30 -240 -28c-107 9 -152 56 -162 143c-14 105 36 190 95 216zM298 519c-22 1 -44 -4 -54 -19
c-30 -64 27 -108 84 -78c52 29 28 92 -30 97zM243 107c21 -3 48 0 69 6c27 5 36 24 28 47c-7 24 -56 31 -96 25c-74 -12 -53 -78 -1 -78z" />
    <glyph glyph-name="nine" unicode="9" horiz-adv-x="604" 
d="M337 287c-59 -27 -118 -17 -173 2c-78 25 -124 85 -125 161c-1 68 11 129 65 182c101 106 302 81 390 -13c40 -43 61 -97 70 -160c18 -171 -67 -443 -251 -478c-45 -9 -90 -14 -135 -5c-32 8 -55 24 -64 56c-5 19 -11 40 -15 60c-6 45 16 63 54 60c14 -1 29 0 44 0
c92 3 134 66 140 135zM328 446c6 21 2 41 -9 61c-16 18 -35 26 -55 20c-15 -5 -27 -18 -28 -37c3 -48 53 -72 92 -44z" />
    <glyph glyph-name="semicolon" unicode=";" horiz-adv-x="274" 
d="M228 158c0 -68 -49 -130 -114 -146c-9 -2 -21 -2 -31 0c-20 5 -27 14 -24 35c2 15 6 30 10 47c4 19 2 37 -10 53c-40 59 38 118 92 108c52 -9 81 -46 77 -97zM94 300c-52 18 -72 80 -39 125c21 31 94 40 128 31c41 -9 53 -27 54 -72c0 -11 -3 -22 -7 -33
c-20 -60 -85 -71 -136 -51z" />
    <glyph glyph-name="equal" unicode="=" horiz-adv-x="320" 
d="M99 336c-24 1 -49 7 -53 32c-4 35 21 58 51 58c48 -2 96 -2 144 -6c33 -2 46 -30 34 -60c-7 -16 -20 -24 -38 -24c-97 0 -117 -1 -138 0zM154 319c28 -3 56 -3 84 -8c30 -5 41 -20 38 -48c-4 -24 -18 -35 -49 -35c-43 0 -89 0 -134 1c-24 0 -38 13 -41 34
c-3 24 8 46 29 50c25 6 52 4 73 6z" />
    <glyph glyph-name="question" unicode="?" horiz-adv-x="636" 
d="M490 799c145 -48 123 -193 84 -300c-15 -42 -46 -73 -85 -93c-18 -10 -36 -19 -52 -30c-39 -25 -46 -41 -33 -85c9 -30 6 -54 -14 -76c-11 -12 -25 -22 -41 -22c-37 0 -74 0 -110 5c-35 6 -49 26 -45 60c4 38 10 75 17 112c3 22 14 38 30 52c24 18 48 38 75 55
c32 20 61 42 83 72c29 50 5 126 -57 118c-50 -5 -83 -32 -97 -81c-5 -19 -6 -38 -10 -55c-6 -19 -10 -37 -20 -50c-16 -22 -39 -32 -68 -26c-34 6 -62 17 -86 42c-52 56 41 226 78 270c25 31 58 48 98 50c89 6 167 10 253 -18zM230 -28c-32 11 -43 31 -40 65
c5 59 32 86 95 85c24 0 49 -8 72 -16c17 -5 24 -21 24 -38c0 -15 0 -29 -2 -45c-12 -79 -99 -65 -149 -51z" />
    <glyph glyph-name="colon" unicode=":" horiz-adv-x="274" 
d="M94 300c-52 18 -72 80 -39 125c21 31 94 40 128 31c41 -9 53 -27 54 -72c0 -11 -3 -22 -7 -33c-20 -60 -85 -71 -136 -51zM94 12c-52 18 -72 80 -39 125c21 31 94 40 128 31c41 -9 53 -27 54 -72c0 -11 -3 -22 -7 -33c-20 -60 -85 -71 -136 -51z" />
    <glyph glyph-name="quoteright" unicode="&#x2019;" horiz-adv-x="243" 
d="M200 716c1 -31 -6 -62 -21 -89c-18 -34 -77 -46 -107 -21c-13 10 -17 24 -17 40c-1 18 0 36 -1 53c0 15 -2 29 -4 42c-8 42 17 74 60 75c54 0 84 -29 89 -82c0 -5 1 -12 1 -18z" />
    <glyph glyph-name="quoteleft" unicode="&#x2018;" horiz-adv-x="243" 
d="M43 681c-1 31 6 62 21 89c18 34 77 46 107 21c13 -10 17 -24 17 -40c1 -18 0 -36 1 -53c0 -15 2 -29 4 -42c8 -42 -17 -74 -60 -75c-54 0 -84 29 -89 82c0 5 -1 12 -1 18z" />
    <glyph glyph-name="quotedblright" unicode="&#x201d;" horiz-adv-x="424" 
d="M200 716c1 -31 -6 -62 -21 -89c-18 -34 -77 -46 -107 -21c-13 10 -17 24 -17 40c-1 18 0 36 -1 53c0 15 -2 29 -4 42c-8 42 17 74 60 75c54 0 84 -29 89 -82c0 -5 1 -12 1 -18zM380 716c1 -31 -6 -62 -21 -89c-18 -34 -77 -46 -107 -21c-13 10 -17 24 -17 40
c-1 18 0 36 -1 53c0 15 -2 29 -4 42c-8 42 17 74 60 75c54 0 84 -29 89 -82c0 -5 1 -12 1 -18z" />
    <glyph glyph-name="quotedblleft" unicode="&#x201c;" horiz-adv-x="424" 
d="M223 681c-1 31 6 62 21 89c18 34 77 46 107 21c13 -10 17 -24 17 -40c1 -18 0 -36 1 -53c0 -15 2 -29 4 -42c8 -42 -17 -74 -60 -75c-54 0 -84 29 -89 82c0 5 -1 12 -1 18zM43 681c-1 31 6 62 21 89c18 34 77 46 107 21c13 -10 17 -24 17 -40c1 -18 0 -36 1 -53
c0 -15 2 -29 4 -42c8 -42 -17 -74 -60 -75c-54 0 -84 29 -89 82c0 5 -1 12 -1 18z" />
    </font>
</defs>
</svg>
