<svg xmlns="http://www.w3.org/2000/svg" viewBox="0 0 123.35 89.19"><defs><style>.a{fill:#368dce;stroke:#000;stroke-linecap:round;stroke-linejoin:round;stroke-width:4px;}</style></defs><path class="a" d="M4.53,29.35a16,16,0,0,0-1-2c-4.84-7.76,3-15.19,7.32-20.82,2.25-2.7,4.95-4.28,8.44-3.83a12.83,12.83,0,0,0,4.27-.22c5.07-.56,10.25,3.38,10,9.9s-.22,13.17-.34,19.7c-.22,12.83.57,28.81.23,42-.34,6.08-2.93,9.46-9.34,10.58a50.84,50.84,0,0,1-8.33.23C9.15,84.27,8.92,79.1,9.6,73.36,11.29,60.53,12.86,48,11.85,36.1,7.57,35.76,5.66,33.06,4.53,29.35Z"/><path class="a" d="M43.92,67.73c2.37-3.49,10.58-4.5,14.41-3.49,4.61,1,6,3,6.08,8.1a11,11,0,0,1-.79,3.72c-2.25,6.75-9.57,8-15.31,5.74A9.1,9.1,0,0,1,43.92,67.73Z"/><path class="a" d="M93.1,28.45c6.53.22,13.17,1.91,18.13,5.63C127,45.89,122.59,78.42,105.37,85c-6.52,2.36-14.63,2.81-22.62,1.57-5.85-1-9.12-5.4-9.34-11.48,0-2.13,0-4.61.11-6.86.34-4.73,2-6.53,6.53-7,1.69,0,3,.11,4.5.23,1.69.11,3.49.45,5.18.45,8.55-.34,10.24-14.64,1.57-15-2.25-.12-4.5-.57-7-.79C78.59,45.44,75.55,43,75,36.89c-.56-7.54-.9-15.19-.78-22.85,0-5.85,3.71-9.56,9.79-10.8a55.22,55.22,0,0,1,6.3-.9C97.38,2.22,104.92,2,112,2c6.31,0,8.78,2.7,9.23,9a25.13,25.13,0,0,1,.11,2.93c-.45,6.87-1.57,9.68-10.8,10-6.3.33-11.82-.23-17.45-.23Z"/></svg>