<svg xmlns="http://www.w3.org/2000/svg" viewBox="0 0 59.64 94.86"><defs><style>.a{fill:#98bbee;stroke:#000;stroke-miterlimit:10;stroke-width:4px;}</style></defs><path class="a" d="M10.11,24.1c-2.88.24-5.16-.72-5.88-3.48a55.24,55.24,0,0,1-2.16-9.36C1.59,7.78,3.63,4.9,7.47,4.18s7.68-.84,11.4-1.2c10.8-1.08,22-2,31.2,1.56,7,2.76,8.52,9.12,7.08,16.56C54.75,31.54,52,39.58,49.35,48c1.68.12,2.76.12,3.84.12,2,.12,3.24,1.08,3.36,2.76a23.28,23.28,0,0,1-.12,7.08c-.24,2.64-2,4.08-4.92,4.56a71.39,71.39,0,0,0-7.68,1.2C42.51,68.14,41,72.58,39.75,77c-.72,2.76-1.08,5.16-1.92,7.8-1.44,5.4-5.28,8.16-11,8a96.85,96.85,0,0,1-10.56-1.8c-3.72-1.08-5.52-3.72-4.8-7.68a66.44,66.44,0,0,1,3-8.28c1.2-3.72,3-7.32,4.44-11.28-2.16,0-3.6.12-5.28,0-3.6,0-5.76-1.92-6.24-5.4-.36-6.36-.12-9.72,8.52-9.48a61.06,61.06,0,0,0,6.72-.48,2.35,2.35,0,0,0,2.64-2c1.92-5.76,4-11,5.88-16.68,4.32-9.12-3-7.2-8.4-6.84C18.51,23,14.31,23.62,10.11,24.1Z"/></svg>