<svg xmlns="http://www.w3.org/2000/svg" viewBox="0 0 265.19 52.32"><defs><style>.a{fill:#039;stroke:#000;stroke-miterlimit:10;}</style></defs><path class="a" d="M1.77,3.26A4.63,4.63,0,0,1,8.19,2a2.79,2.79,0,0,1,1,2.4c.07,1.08,0,2.16.07,3.18A17.72,17.72,0,0,0,9.5,10.1a3.55,3.55,0,0,1-3.59,4.5c-3.24,0-5-1.74-5.34-4.92C.57,9.38.51,9,.51,8.6A10.33,10.33,0,0,1,1.77,3.26Z"/><path class="a" d="M45.5,27a24.64,24.64,0,0,1,.24,13.2c-1,4.14-3.66,6.48-7.8,7.62a22.94,22.94,0,0,1-9.9.42c-2.34,4.5-4,3.54-7.85,3.54-2.46-.24-4.08-1.56-4.38-4.08a41.7,41.7,0,0,1-.66-7.74C14.91,29,14.25,18,14.67,7c.24-2.1.72-3.84,3-4,2.52-.12,5.15-.18,7.74-.24s2.4,2.88,2.4,4.56c.06,4,.11,8,.18,12.06,0,.42.12.72.12,1.26C34.1,18.86,43.46,20.18,45.5,27Zm-13,10.86c1.62-.78,2.16-2,1.87-4A3,3,0,0,0,31.53,31a31.52,31.52,0,0,0-3.37,0v7.26A6.73,6.73,0,0,0,32.54,37.82Z"/><path class="a" d="M71.84,44.36c-1.44,1-2.7,2.34-4.14,3.36a11.29,11.29,0,0,1-9.83,1.5,7.89,7.89,0,0,1-5.95-6,22.33,22.33,0,0,1,2-17.82,16.85,16.85,0,0,1,8.21-7.08,12.5,12.5,0,0,1,5.52-1c2,.24,4,.36,6,.42a3.39,3.39,0,0,0,1.68-.48,10,10,0,0,1,8-1,2.78,2.78,0,0,1,2.52,2.94c.06,1.86,0,3.54.06,5.4.06,3.6.06,7.38.18,11s.12,7.08.12,10.56v.48c-.3,3.42-1.44,4.5-5,4.62-1.26.06-2.46.06-3.72,0a5.61,5.61,0,0,1-2-.36c-1.44-.48-2-1-1.92-2.52.06-1.68.3-3.24.42-4.74a5.51,5.51,0,0,0,0-1A17.08,17.08,0,0,0,71.84,44.36Zm-5-7.86a7.32,7.32,0,0,0,4.74-2.58c.18-.12.24-.54.24-.78,0-13.32-9.18-2.88-7.86,1.44A2.36,2.36,0,0,0,66.8,36.5Z"/><path class="a" d="M124.7,19.76c5,4.92,5.16,21.06,3.66,27.36-.78,3.06-3.66,4.08-7.14,4s-6.3-1.32-5.7-4.8c.18-2.28.48-6.72.48-10.32,0-10.44-8.88-7.56-10.55,1-.37,2.34-.54,4.74-.85,7.2-.18.84-.18,1.74-.42,2.52a4.66,4.66,0,0,1-4.8,4c-3.41,0-7.14-.36-7.56-3.84-.47-8.76.73-18.18,1.38-26.1a9.13,9.13,0,0,1,.91-3.12c1.43-3.12,8.93-2.76,10-.36a12.55,12.55,0,0,1,.91,2.34,21.52,21.52,0,0,1,.47,3.42C111.2,19,118.4,13.7,124.7,19.76Z"/><path class="a" d="M155.6,44.36c-1.44,1-2.7,2.34-4.14,3.36a11.3,11.3,0,0,1-9.84,1.5,7.89,7.89,0,0,1-5.94-6,22.37,22.37,0,0,1,2-17.82,16.92,16.92,0,0,1,8.22-7.08,12.5,12.5,0,0,1,5.52-1c2,.24,4,.36,6,.42a3.39,3.39,0,0,0,1.68-.48,10,10,0,0,1,8-1,2.78,2.78,0,0,1,2.52,2.94c.06,1.86,0,3.54.06,5.4.06,3.6.06,7.38.18,11s.12,7.08.12,10.56v.48c-.3,3.42-1.44,4.5-5,4.62-1.26.06-2.46.06-3.72,0a5.61,5.61,0,0,1-2-.36c-1.44-.48-2-1-1.92-2.52.06-1.68.3-3.24.42-4.74a5.51,5.51,0,0,0,0-1A17.08,17.08,0,0,0,155.6,44.36Zm-5-7.86a7.32,7.32,0,0,0,4.74-2.58c.18-.12.24-.54.24-.78,0-13.32-9.18-2.88-7.86,1.44A2.36,2.36,0,0,0,150.56,36.5Z"/><path class="a" d="M208.46,19.76c5,4.92,5.16,21.06,3.66,27.36-.78,3.06-3.66,4.08-7.14,4s-6.3-1.32-5.7-4.8c.18-2.28.48-6.72.48-10.32,0-10.44-8.88-7.56-10.56,1-.36,2.34-.54,4.74-.84,7.2-.18.84-.18,1.74-.42,2.52a4.66,4.66,0,0,1-4.8,4c-3.41,0-7.14-.36-7.56-3.84-.47-8.76.73-18.18,1.38-26.1a9.13,9.13,0,0,1,.91-3.12c1.43-3.12,8.93-2.76,10-.36a12.5,12.5,0,0,1,.9,2.34,20.28,20.28,0,0,1,.48,3.42C195,19,202.16,13.7,208.46,19.76Z"/><path class="a" d="M239.36,44.36c-1.44,1-2.7,2.34-4.14,3.36a11.3,11.3,0,0,1-9.84,1.5,7.88,7.88,0,0,1-5.94-6,22.33,22.33,0,0,1,2-17.82,16.87,16.87,0,0,1,8.22-7.08,12.5,12.5,0,0,1,5.52-1c2,.24,4,.36,6,.42a3.39,3.39,0,0,0,1.68-.48,10,10,0,0,1,8-1,2.78,2.78,0,0,1,2.52,2.94c.06,1.86,0,3.54.06,5.4.06,3.6.06,7.38.18,11s.12,7.08.12,10.56v.48c-.3,3.42-1.44,4.5-5,4.62-1.26.06-2.46.06-3.72,0a5.61,5.61,0,0,1-2-.36c-1.44-.48-2-1-1.92-2.52.06-1.68.3-3.24.42-4.74a5.51,5.51,0,0,0,0-1A17.08,17.08,0,0,0,239.36,44.36Zm-5-7.86a7.32,7.32,0,0,0,4.74-2.58c.18-.12.24-.54.24-.78,0-13.32-9.18-2.88-7.86,1.44A2.36,2.36,0,0,0,234.32,36.5Z"/><path class="a" d="M263.42,11.84A4.63,4.63,0,0,1,257,13.1a2.8,2.8,0,0,1-1-2.4c-.06-1.08,0-2.16-.06-3.18A16.33,16.33,0,0,0,255.68,5a3.56,3.56,0,0,1,3.6-4.5c3.24,0,5,1.74,5.34,4.92,0,.3.06.72.06,1.08A10.33,10.33,0,0,1,263.42,11.84Z"/></svg>