<svg xmlns="http://www.w3.org/2000/svg" viewBox="0 0 385.97 326.53"><defs><style>.a{fill:#f1b176;}.b,.f{fill:#bf844f;}.c{fill:#dd9a5d;}.d{fill:#fdca9b;}.e{fill:#fff;stroke-linecap:round;stroke-width:4px;}.e,.f,.g{stroke:#039;}.e,.g{stroke-linejoin:round;}.f{stroke-miterlimit:10;}.f,.g{stroke-width:2px;}.g{fill:none;}.h{fill:#d4fcff;opacity:0.55;}.i{fill:#039;}</style></defs><polygon class="a" points="163.52 170.39 230.07 129.87 162.16 93.32 87.61 139.6 163.52 170.39"/><polygon class="b" points="47.19 75.83 163.52 8.82 162.16 93.32 72.53 148.97 47.19 75.83"/><polygon class="c" points="163.52 8.82 276.96 75.54 275.77 157.13 162.16 93.32 163.52 8.82"/><polygon class="b" points="279.69 163.07 276.96 75.54 163.52 141.65 163.52 229.43 279.69 163.07"/><path class="c" d="M44.58,161.77l2.61-85.94,116.33,65.82s1.12,88.56,0,87.78S44.58,161.77,44.58,161.77Z"/><path class="d" d="M197.81,16.91,163.52,8.82,277,75.54s37.19,7.29,35.43,7.44S197.81,16.91,197.81,16.91Z"/><polygon class="d" points="163.52 141.65 276.96 75.54 304.75 128.88 181.71 198.1 163.52 141.65"/><polygon class="d" points="47.19 75.83 163.52 141.65 153.69 198.17 35.09 127.63 47.19 75.83"/><polygon class="d" points="16.42 82.98 131.62 16.89 163.52 8.82 47.19 75.83 16.42 82.98"/><polygon class="e" points="186.7 248.7 171.89 182.16 230.26 148.43 381.2 223.54 335.84 320.65 186.7 248.7"/><circle class="f" cx="195.9" cy="190.22" r="6.66"/><path class="g" d="M196.16,187.13C180.64,206,170.62,204,152.05,205s-22.28-13.55-40.53-15.5"/><rect class="h" x="113.86" y="188.17" width="14.3" height="7.05" transform="translate(333.8 269.89) rotate(142.44)"/><path class="i" d="M217.46,228.41c-1.5,3.44-10.52,1-10.49-3.35a9.82,9.82,0,0,1,.43-3.51c1-2.75,2.16-5.36,3.4-8.11.59-1.52,1.31-2.91,2-4.33-.56-.51-1-.8-1.48-1.19-1.88-1.39-2.06-2.84-.81-5a3.43,3.43,0,0,1,4.78-1.45,4.54,4.54,0,0,0,.81.38c2.36-5.38,4.84-10.9,8.5-14.18,7.78-6.91,17-.68,20.9,6.72,1.05,2.11.82,4-1,5.48a15,15,0,0,1-6.42,3c-1.52.21-2.31-.35-3.14-1.73-1.38-2.2-1.78-3.57-4.21-1.06a24.71,24.71,0,0,0-3.83,6.67c1.62.89,4.58,2.35,6.26,3.27a14.82,14.82,0,0,1,1.9,1.21c1.4,1.09,1.55,2.34.59,3.87a4,4,0,0,1-4.17,2,39,39,0,0,1-5.47-1.91,19.59,19.59,0,0,1-2.3-1C220.82,219.6,219.32,224.09,217.46,228.41Z"/><path class="i" d="M254.34,191.8a4.36,4.36,0,0,1,5.7-1.32,15.92,15.92,0,0,1,4,2.31c2.06,1.53,2.75,3.47,1.72,5.65-4.25,8.2-8.43,16-12.82,23.71-1.91,3.37-.44,3.82,2,5.49,2.16,1.46,1,5-1,6.86-2.33,2.05-6.17.61-8.82-.71-7.8-3.81-6.68-9.72-3.85-16.62,2.93-7.09,6.53-13.93,9.84-20.42A35.6,35.6,0,0,1,254.34,191.8Z"/><path class="i" d="M279.62,213.23c4.89,2.25,10.63,4.9,11.23,9.77.65,5.32-2.51,13.17-7.39,17.86-4.15,3.92-7.36,4.57-12.35,2.95-7.09-2.3-11.13-7.36-9.19-13.44s5.39-12.44,9.41-16.23A7.53,7.53,0,0,1,279.62,213.23ZM274.84,227c-1,2.17-2.06,5-.56,6.17,3.36,2.7,6.65-4.65,7-6.61.19-1.59,0-2.93-1.2-3.61C277.4,221.59,275.63,225.34,274.84,227Z"/><path class="i" d="M305.23,254.13c-1.62.29-3.21.9-4.83,1.19a10.57,10.57,0,0,1-8.89-2.66,7.34,7.34,0,0,1-2.62-7.43A20.8,20.8,0,0,1,297.67,231a15.71,15.71,0,0,1,9.75-2.69,11.63,11.63,0,0,1,5,1.39c1.62,1,3.2,1.88,4.89,2.75a3.24,3.24,0,0,0,1.61.26,9.34,9.34,0,0,1,7.11,2.37,2.6,2.6,0,0,1,.95,3.49c-.69,1.59-1.41,3-2.1,4.57-1.38,3.06-2.89,6.25-4.22,9.34s-2.73,6-4.12,9c-.07.15-.11.25-.19.4-1.61,2.77-3,3.22-6,1.91-1.08-.45-2.1-.93-3.14-1.48a5.2,5.2,0,0,1-1.57-1.12c-1-1-1.27-1.65-.62-2.89s1.55-2.61,2.25-3.83a4.84,4.84,0,0,0,.4-.86A17.28,17.28,0,0,0,305.23,254.13Zm-1.11-8.64a6.77,6.77,0,0,0,5-.28c.2,0,.42-.36.52-.56,5.31-11.24-6.6-6.09-7.21-1.92A2.2,2.2,0,0,0,304.12,245.49Z"/><path class="i" d="M352,251.81a13.32,13.32,0,0,1,2,1.86c1.72,2.24-.66,7.55-3.54,7.74a6.92,6.92,0,0,1-2.69-.47c-1.36-.52-2.63-1.25-4-1.92a15.55,15.55,0,0,0-2.29,6c-.22,1.5.27,2.3,1.79,2.89a14.54,14.54,0,0,0,2,.33c1.94.36,3.06,1.38,3.11,3.39.05,3.55-1.6,6.11-5.43,6.22a17.48,17.48,0,0,1-11.6-4,7.51,7.51,0,0,1-2.57-7.65,47.93,47.93,0,0,1,3.84-10.75,15.55,15.55,0,0,0,.74-1.57c-1.12-.9-2.19-1.66-3.13-2.54a3.94,3.94,0,0,1-1.44-4.95,12.39,12.39,0,0,1,1.27-2.55c1.34-2,2.86-2.37,5-1.29a12.05,12.05,0,0,1,1.37.9c.73.41,1.24.77,2.13,1.25.65-1.11,1.38-2.13,2-3.22,1.11-1.83,2.19-3.73,3.38-5.46,1.53-2.19,3.2-2.82,5.87-1.93a14.9,14.9,0,0,1,2,.83c2.53,1.2,3.58,3.18,2.55,5.73a48.28,48.28,0,0,1-2.85,5.77,37.05,37.05,0,0,1-2.33,3.48C350.12,250.6,351.11,251.13,352,251.81Z"/></svg>