<svg xmlns="http://www.w3.org/2000/svg" viewBox="0 0 385.97 326.53"><defs><style>.a{fill:#f1b176;}.b{fill:#bf844f;}.c,.f{fill:#dd9a5d;}.d{fill:#fdca9b;}.e{fill:#fff;stroke-linecap:round;stroke-width:4px;}.e,.f,.g{stroke:#039;}.e,.g{stroke-linejoin:round;}.f{stroke-miterlimit:10;}.f,.g{stroke-width:2px;}.g{fill:none;}.h{fill:#d4fcff;opacity:0.55;}.i{fill:#039;}</style></defs><polygon class="a" points="227.97 226.3 294.53 185.78 226.61 149.23 152.07 195.52 227.97 226.3"/><polygon class="b" points="111.65 131.74 227.97 64.74 226.61 149.23 136.99 204.88 111.65 131.74"/><polygon class="c" points="227.97 64.74 341.42 131.45 340.23 213.04 226.61 149.23 227.97 64.74"/><polygon class="b" points="344.15 218.99 341.42 131.45 227.97 197.56 227.97 285.34 344.15 218.99"/><path class="c" d="M109,217.68l2.61-85.94L228,197.56s1.12,88.56,0,87.78S109,217.68,109,217.68Z"/><path class="d" d="M267.94,2.43,228,64.74l113.45,66.71s42.87-63.1,41.1-62.95S267.94,2.43,267.94,2.43Z"/><polygon class="d" points="227.97 197.56 341.42 131.45 384.9 131.74 261.86 200.96 227.97 197.56"/><polygon class="d" points="111.65 131.74 227.97 197.56 183.49 199.91 64.89 129.38 111.65 131.74"/><polygon class="d" points="70.38 68.51 185.58 2.43 227.97 64.74 111.65 131.74 70.38 68.51"/><polygon class="e" points="168.17 182.64 221.54 227.19 195.36 290.77 26.66 324.01 2.88 217.31 168.17 182.64"/><circle class="f" cx="204.08" cy="230.5" r="6.86"/><path class="g" d="M204,230.39c.4-19.77,25.7,17.22,37,7.25s24.42-6.08,37-14"/><rect class="h" x="263.93" y="222.52" width="14.3" height="7.05" transform="translate(297.3 -125.94) rotate(54.44)"/><path class="i" d="M43.14,262.17a18.34,18.34,0,0,1,2.26,9.54c0,3.15-1.63,5.28-4.45,6.76a17.16,17.16,0,0,1-7.12,1.87c-1,3.63-2.35,3.2-5.14,3.81a3.27,3.27,0,0,1-3.82-2.27,31.67,31.67,0,0,1-1.7-5.51c-1.9-7.88-4.12-15.78-5.54-23.77-.16-1.56-.09-2.9,1.55-3.35,1.8-.48,3.71-.94,5.57-1.39s2.2,1.71,2.46,2.92l2,8.72c.07.31.2.51.28.9C33.59,258.1,40.59,257.58,43.14,262.17Zm-7.68,9.93a2.44,2.44,0,0,0,.72-3.17,2.23,2.23,0,0,0-2.54-1.63,22.11,22.11,0,0,0-2.44.53l1.15,5.26A5,5,0,0,0,35.46,272.1Z"/><path class="i" d="M52.75,252.1c4.16-.95,9.07-2.07,11.82.71,3,3,4.81,9.53,4,14.85-.71,4.48-2.42,6.45-6.36,7.86-5.58,2-10.59.76-12.31-4S47.27,261.05,48,256.7A6,6,0,0,1,52.75,252.1Zm3.67,11c.41,1.87,1.14,4.17,2.64,4.16,3.43.08,1.94-6.16,1.18-7.55-.65-1.09-1.45-1.82-2.51-1.68C55.41,258.45,56.11,261.67,56.42,263.11Z"/><path class="i" d="M76.5,246.93c4.17-1,9.07-2.07,11.82.7,3,3,4.81,9.53,4,14.85-.71,4.49-2.42,6.46-6.35,7.86-5.59,2-10.6.76-12.32-4s-2.64-10.46-2-14.8A6,6,0,0,1,76.5,246.93Zm3.67,11c.41,1.87,1.14,4.18,2.64,4.17,3.44.07,1.94-6.17,1.18-7.55-.64-1.09-1.44-1.83-2.51-1.69C79.16,253.28,79.86,256.5,80.17,257.93Z"/><path class="i" d="M92.19,236.54a3.48,3.48,0,0,1,3-3.61,12.73,12.73,0,0,1,3.63-.47c2,0,3.42.85,3.83,2.72,1.31,7.23,2.46,14.19,3.43,21.17.44,3,1.58,2.62,4,2.47,2.07-.13,3.08,2.65,2.73,4.78-.48,2.43-3.6,3.39-5.91,3.84-6.77,1.39-8.93-2.88-10.49-8.6-1.61-5.9-2.65-12-3.71-17.66A26.43,26.43,0,0,1,92.19,236.54Z"/><path class="i" d="M118.88,237.51c2.81-1.11,6.66-1.63,9.38-.45a5.68,5.68,0,0,1,3.35,4.1c.43,1.73.76,3.48,1.11,5.28a3.63,3.63,0,0,1-2.62,4.49l-2.83.61-2.22.49c-.48.1-1,.31-.89.92a1,1,0,0,0,1.23.87c1.41-.26,2.83-.61,4.31-.94.79-.17,1.61-.35,2.49-.49a1.6,1.6,0,0,1,1.76,1.16,18.17,18.17,0,0,1,.49,3.09,3.92,3.92,0,0,1-2.1,3.33,15.43,15.43,0,0,1-11.08,2.09c-2.81-.57-4.34-2.38-5.62-4.7-2.49-4.52-2.85-11.41-2.57-13.43C113.38,240.72,115.48,238.43,118.88,237.51Zm4.07,9.05,3.56-.78C125.81,241.11,122.05,243.06,123,246.56Z"/><path class="i" d="M153.39,251.37c-.89,1-1.59,2.12-2.47,3.09a8.4,8.4,0,0,1-6.9,2.64,5.85,5.85,0,0,1-5.26-3.41,16.57,16.57,0,0,1-1.38-13.24,12.53,12.53,0,0,1,4.84-6.43,9.33,9.33,0,0,1,3.85-1.57c1.52-.15,2.93-.36,4.42-.64a2.51,2.51,0,0,0,1.14-.62,7.41,7.41,0,0,1,5.64-1.95,2.06,2.06,0,0,1,2.29,1.73c.34,1.34.56,2.57.9,3.91.61,2.6,1.21,5.34,1.86,7.93s1.21,5.12,1.76,7.64l.08.35c.32,2.53-.34,3.49-2.89,4.14-.9.24-1.77.43-2.69.59a4.49,4.49,0,0,1-1.54.06c-1.12-.12-1.6-.43-1.79-1.53s-.29-2.4-.44-3.5a4.28,4.28,0,0,0-.17-.74A12.49,12.49,0,0,0,153.39,251.37Zm-4.9-4.91a5.43,5.43,0,0,0,3-2.62c.11-.11.09-.43,0-.6-2.1-9.66-7.11-.64-5.47,2.29A1.74,1.74,0,0,0,148.49,246.46Z"/><path class="i" d="M187.83,225.18c4.43,2.77,7.07,14.45,7,19.26-.09,2.34-2,3.54-4.55,4s-4.77,0-4.89-2.58c-.23-1.68-.71-5-1.28-7.56-1.65-7.57-7.64-4.08-7.51,2.37.11,1.75.36,3.52.53,5.35,0,.64.14,1.29.09,1.9a3.46,3.46,0,0,1-2.84,3.67c-2.48.54-5.24.87-6.09-1.59-1.73-6.28-2.35-13.3-3.12-19.15a6.67,6.67,0,0,1,.16-2.4c.55-2.49,6-3.42,7.2-1.85a9.34,9.34,0,0,1,1,1.56,16.21,16.21,0,0,1,.89,2.4C177.91,226.74,182.3,221.78,187.83,225.18Z"/></svg>