<svg xmlns="http://www.w3.org/2000/svg" viewBox="0 0 385.97 326.53"><defs><style>.a{fill:#f1b176;}.b{fill:#bf844f;}.c{fill:#dd9a5d;}.d,.f{fill:#fdca9b;}.e{fill:#fff;stroke-linecap:round;}.e,.f,.g{stroke:#039;}.e,.g{stroke-linejoin:round;}.e,.f{stroke-width:4px;}.f{stroke-miterlimit:10;}.g{fill:none;stroke-width:2px;}.h{fill:#d4fcff;opacity:0.55;}.i{fill:#039;}</style></defs><polygon class="a" points="163.44 176.65 229.99 136.13 162.08 99.58 87.53 145.87 163.44 176.65"/><polygon class="b" points="47.11 82.09 163.44 15.09 162.08 99.58 72.45 155.23 47.11 82.09"/><polygon class="c" points="163.44 15.09 276.88 81.8 275.69 163.4 162.08 99.58 163.44 15.09"/><polygon class="b" points="279.61 169.34 276.88 81.8 163.44 147.92 163.44 235.69 279.61 169.34"/><path class="c" d="M44.5,168,47.11,82.1l116.33,65.82s1.12,88.56,0,87.77S44.5,168,44.5,168Z"/><path class="d" d="M209.06,2.67,163.44,15.09,276.88,81.8s49.5-22.1,47.74-21.95S209.06,2.67,209.06,2.67Z"/><polygon class="d" points="163.44 147.92 276.88 81.8 319.79 117.06 203.17 191.55 163.44 147.92"/><polygon class="d" points="47.11 82.09 163.44 147.92 129.53 202.19 10.93 131.66 47.11 82.09"/><polygon class="d" points="2.12 69.94 121.4 9.1 163.44 15.09 47.11 82.09 2.12 69.94"/><polygon class="e" points="189.17 274.33 161.01 210.89 212.49 165.48 378.25 210.09 352.5 316.14 189.17 274.33"/><circle class="f" cx="182.95" cy="212.33" r="7.02"/><path class="g" d="M136,204.64s-3.5,3.85,11,12c11.69,6.58,28-7,38-5"/><rect class="h" x="132.39" y="206.87" width="14.3" height="7.05" transform="translate(-107.9 160.3) rotate(-45)"/><path class="i" d="M218.54,214.1a1.77,1.77,0,0,1-2.07.35,12.48,12.48,0,0,0-1.78-.74c-2.64-.93-4.84,1.28-3.47,3.25,3.35,4.75,6.64,6.81,5.22,12.8-.94,4.16-4.17,5.79-8.21,5.56a28.6,28.6,0,0,1-10.75-2.75,2.79,2.79,0,0,1-1.75-2.67,41,41,0,0,1,.6-4.29c.51-2.19,2.27-2.82,4.56-2a17.28,17.28,0,0,0,2.68.73c1.77.32,2.23-.9,2-2.15s-1.86-2.64-3.25-4c-5.24-5.51-3.21-14.58,4.78-15.41a19.9,19.9,0,0,1,11.06,2.55c1.31.75,3.21,1.68,3.15,3.19A11.18,11.18,0,0,1,218.54,214.1Z"/><path class="i" d="M245.12,216a12.76,12.76,0,0,1,2.15,1.24c2,1.63,1,6.88-1.51,7.66a6.32,6.32,0,0,1-2.5.15c-1.33-.18-2.61-.55-4-.85a14.12,14.12,0,0,0-.77,5.87c.13,1.39.73,2,2.21,2.2a13.54,13.54,0,0,0,1.86-.13c1.81-.09,3,.59,3.49,2.36.8,3.16-.12,5.8-3.51,6.71a16.16,16.16,0,0,1-11.21-1.11,6.91,6.91,0,0,1-3.91-6.29,43.24,43.24,0,0,1,1.15-10.4c.14-.45.21-1,.33-1.56-1.19-.57-2.31-1-3.34-1.6a3.62,3.62,0,0,1-2.33-4.11,11,11,0,0,1,.59-2.55c.76-2.1,2-2.72,4.2-2.21a11.41,11.41,0,0,1,1.41.51c.74.21,1.27.42,2.17.67.34-1.14.78-2.2,1.06-3.3.61-1.86,1.17-3.79,1.87-5.58.9-2.28,2.25-3.2,4.82-3a12.5,12.5,0,0,1,2,.32c2.51.53,3.86,2.07,3.49,4.56a45.32,45.32,0,0,1-1.32,5.76,34.1,34.1,0,0,1-1.34,3.6C243.17,215.27,244.16,215.53,245.12,216Z"/><path class="i" d="M266.26,221.42a11.93,11.93,0,0,1,7.42-.58c2.15.5,3,1.79,2.48,3.88-.45,1.9-1,3.67-1.59,5.54-.55,1.35-1.31,1.72-2.61,1.18-7.8-3.28-10.94,5.34-11.59,11.4-.39,3.59-5.49,2.61-8.44,1.68-2.11-.92-2.74-2.16-2.26-4.42,1.41-6.68,2.64-13,3.71-19.78a26.45,26.45,0,0,1,.77-3.41c1-3.87,5.51-3,8.53-1.6,1.95.94,2.23,3.09,2.07,5.05,0,.58-.07,1.09-.12,1.82Z"/><path class="i" d="M285.41,249.24c-.72,1.42-1.67,1.43-3.19,1.42a14.26,14.26,0,0,1-3.91-.62c-3.05-1-2-4.46-1.42-6.7.54-2,1.22-4,1.75-6,.59-1.76,1-3.61,1.59-5.54.48-1.73,1.42-2.22,3.21-1.78.8.22,1.51.31,2.25.52,2.4.56,3.49,1.89,3.08,4.33a98.41,98.41,0,0,1-2.47,11.39A20.67,20.67,0,0,1,285.41,249.24Zm6.5-27c.79,2.68-.43,6.47-3.07,6.8a9.72,9.72,0,0,1-5.57-1,3.17,3.17,0,0,1-1.8-3.11c.07-.61.25-1.21.25-1.47C281.6,217.63,290.59,218,291.91,222.23Z"/><path class="i" d="M324.08,231.87c3.34,5,.59,18.54-1.79,23.54-1.19,2.43-3.78,2.77-6.68,2.1s-5-2.22-3.92-5c.55-1.88,1.59-5.54,2.23-8.55,1.84-8.74-6.1-7.91-9-1.07-.72,1.89-1.29,3.87-2,5.88-.3.67-.46,1.42-.8,2a4,4,0,0,1-4.73,2.52c-2.86-.61-5.91-1.57-5.65-4.56,1.15-7.42,3.83-15.09,5.78-21.6a8,8,0,0,1,1.31-2.45c1.75-2.36,8-.73,8.45,1.47a10.82,10.82,0,0,1,.33,2.12,16,16,0,0,1-.2,2.95C312.92,228.82,319.88,225.68,324.08,231.87Z"/><path class="i" d="M340.75,256a9.8,9.8,0,0,1-6.37-.87,7.48,7.48,0,0,1-4.14-4.71,10.92,10.92,0,0,1,0-6.13,16.07,16.07,0,0,1,4.94-8.19,11.08,11.08,0,0,1,4.35-2.49c2.56-.67,5.17-.64,7.28.8,2.52,1.74,5.19,2,8,2.18a5.22,5.22,0,0,1,2.61.55c2.17,1.19,3,2.41,2.56,4.27-.56,2.66-1.23,5.35-1.8,8-.65,2.85-1.21,5.73-2.06,8.53a49.49,49.49,0,0,1-2.79,8.7c-1.74,3.78-5.21,5.77-9.83,5.79-3.42.07-9.17-1.31-11.54-3.49-1.68-1.46-2.75-3.1-1.95-5.13,2-5.19,2.94-4.73,8.2-2.31,2.71,1.31,4.91.57,5.94-2.05.51-1.41.82-2.87,1.39-4.58C343.68,255.27,342.3,255.61,340.75,256Zm-.15-12.89a7.1,7.1,0,0,0-.73,2.68c-.16,1.49.49,2.15,2.29,2.59s2.66.09,3.2-1.27.86-3.07,1.35-4.64C344.34,241.24,341.75,240.59,340.6,243.07Z"/></svg>