<svg xmlns="http://www.w3.org/2000/svg" viewBox="0 0 385.97 326.53"><defs><style>.a{fill:#f1b176;}.b{fill:#bf844f;}.c{fill:#dd9a5d;}.d,.f{fill:#fdca9b;}.e{fill:#fff;stroke-linecap:round;}.e,.f,.g{stroke:#039;stroke-width:4px;}.e,.g{stroke-linejoin:round;}.f{stroke-miterlimit:10;}.g{fill:none;}.h{fill:#d4fcff;opacity:0.55;}.i{font-size:32.51px;fill:#039;font-family:Fresh-Steak, Fresh Steak;}</style></defs><polygon class="a" points="200 258.08 276.69 211.39 198.43 169.27 112.52 222.61 200 258.08"/><polygon class="b" points="65.94 149.12 200 71.9 198.43 169.27 95.15 233.4 65.94 149.12"/><polygon class="c" points="200 71.9 330.73 148.78 329.36 242.81 198.43 169.27 200 71.9"/><polygon class="b" points="333.88 249.66 330.73 148.78 200 224.97 200 326.12 333.88 249.66"/><path class="c" d="M62.93,248.15l3-99L200,225s1.29,102,0,101.15S62.93,248.15,62.93,248.15Z"/><path class="d" d="M239.51,81.22,200,71.9l130.73,76.88s42.86,8.4,40.82,8.57S239.51,81.22,239.51,81.22Z"/><polygon class="d" points="200 224.97 330.73 148.78 362.75 210.25 220.96 290.02 200 224.97"/><polygon class="d" points="65.94 149.12 200 224.97 188.67 290.1 51.99 208.82 65.94 149.12"/><polygon class="d" points="30.48 157.35 163.24 81.2 200 71.9 65.94 149.12 30.48 157.35"/><polygon class="e" points="141.28 230.47 178.01 273.63 148.21 321.1 8.1 324.53 3.72 235.53 141.28 230.47"/><circle class="f" cx="155.39" cy="275.25" r="5.54"/><path class="g" d="M156.71,277.5c.41-20.29,7.53-14.78,19.12-25s10.57-18.25,23.48-26.38"/><rect class="h" x="175.74" y="238.74" width="16.48" height="8.13" transform="matrix(0.87, 0.5, -0.5, 0.87, 146.05, -59.46)"/><text class="i" transform="translate(36.35 289.99) rotate(-0.98)">float</text></svg>