<svg xmlns="http://www.w3.org/2000/svg" viewBox="0 0 385.97 326.53"><defs><style>.a{fill:#f1b176;}.b{fill:#bf844f;}.c{fill:#dd9a5d;}.d,.f{fill:#fdca9b;}.e{fill:#fff;stroke-linecap:round;}.e,.f,.g{stroke:#039;stroke-width:4px;}.e,.g{stroke-linejoin:round;}.f{stroke-miterlimit:10;}.g{fill:none;}.h{fill:#d4fcff;opacity:0.55;}.i{font-size:32.51px;fill:#039;font-family:Fresh-Steak, Fresh Steak;}</style></defs><polygon class="a" points="199.9 257.24 276.6 210.55 198.34 168.43 112.43 221.76 199.9 257.24"/><polygon class="b" points="65.85 148.27 199.9 71.05 198.34 168.43 95.05 232.55 65.85 148.27"/><polygon class="c" points="199.9 71.05 330.63 147.93 329.27 241.96 198.34 168.43 199.9 71.05"/><polygon class="b" points="333.78 248.81 330.63 147.93 199.9 224.12 199.9 325.27 333.78 248.81"/><path class="c" d="M62.84,247.3l3-99L199.9,224.12s1.29,102.06,0,101.15S62.84,247.3,62.84,247.3Z"/><path class="d" d="M252.48,56.75,199.9,71.05l130.73,76.88s57.05-25.47,55-25.3S252.48,56.75,252.48,56.75Z"/><polygon class="d" points="199.9 224.12 330.63 147.93 380.09 188.56 245.69 274.4 199.9 224.12"/><polygon class="d" points="65.85 148.27 199.9 224.12 160.84 286.67 24.16 205.39 65.85 148.27"/><polygon class="d" points="14 134.27 151.46 64.15 199.9 71.05 65.85 148.27 14 134.27"/><polygon class="e" points="141.19 229.63 177.92 272.78 148.12 320.25 8 323.68 3.62 234.69 141.19 229.63"/><circle class="f" cx="155.3" cy="274.4" r="5.54"/><path class="g" d="M156.62,276.66c.41-20.3,7.52-14.79,19.11-25s10.58-18.26,23.49-26.39"/><rect class="h" x="175.65" y="237.9" width="16.48" height="8.13" transform="matrix(0.87, 0.5, -0.5, 0.87, 145.62, -59.53)"/><text class="i" transform="translate(24.14 286.64) rotate(-0.98)">string</text></svg>