<svg xmlns="http://www.w3.org/2000/svg" viewBox="0 0 385.97 326.53"><defs><style>.a{fill:#f1b176;}.b{fill:#bf844f;}.c{fill:#dd9a5d;}.d,.f{fill:#fdca9b;}.e{fill:#fff;stroke-linecap:round;stroke-width:4px;}.e,.f,.g{stroke:#039;}.e,.g{stroke-linejoin:round;}.f{stroke-miterlimit:10;}.f,.g{stroke-width:2px;}.g{fill:none;}.h{fill:#d4fcff;opacity:0.55;}.i{fill:#039;}</style></defs><polygon class="a" points="222.56 211.03 289.12 170.51 221.2 133.96 146.66 180.24 222.56 211.03"/><polygon class="b" points="106.24 116.47 222.56 49.46 221.2 133.96 131.58 189.6 106.24 116.47"/><polygon class="c" points="222.56 49.46 336 116.17 334.82 197.77 221.2 133.96 222.56 49.46"/><polygon class="b" points="338.74 203.71 336 116.17 222.56 182.29 222.56 270.06 338.74 203.71"/><path class="c" d="M103.62,202.4l2.62-85.93,116.32,65.82s1.12,88.56,0,87.77S103.62,202.4,103.62,202.4Z"/><polygon class="d" points="106.24 116.47 222.56 182.29 167.57 205.57 48.97 135.04 106.24 116.47"/><polygon class="e" points="160.09 169.44 216.44 206.74 197.99 270.97 38.59 321.21 4.16 220.7 160.09 169.44"/><circle class="f" cx="192.2" cy="215.74" r="6.6"/><path class="g" d="M193.31,218.22c-6.23-23.39,21.76,27,31.66,11.42s21.89,7.58,34-6"/><rect class="h" x="244.52" y="220.24" width="14.3" height="7.05" transform="matrix(0.13, 0.99, -0.99, 0.13, 441.25, -54.56)"/><path class="d" d="M269.27,1.59,222.56,49.46,336,116.17s49.61-48.66,47.85-48.51S269.27,1.59,269.27,1.59Z"/><polygon class="d" points="222.56 182.29 336 116.17 371.53 154.29 248.49 223.51 222.56 182.29"/><polygon class="d" points="55.18 84.93 170.39 18.85 222.56 49.46 106.24 116.47 55.18 84.93"/><path class="i" d="M40.49,273c.1,1.34-.58,1.76-1.67,2.42a12.64,12.64,0,0,1-3.08,1.26c-2.61.64-3.38-2.34-3.94-4.2-.5-1.7-.87-3.4-1.37-5.1-.35-1.52-.84-3-1.27-4.67-.42-1.46,0-2.21,1.52-2.69.67-.18,1.23-.42,1.85-.6,2-.64,3.33-.16,4.09,1.77a81.2,81.2,0,0,1,3.2,9.26A18.38,18.38,0,0,1,40.49,273Zm-7.11-22.24c1.75,1.58,2.52,4.83.77,6.22a8.11,8.11,0,0,1-4.43,1.73,2.66,2.66,0,0,1-2.65-1.44c-.21-.48-.35-1-.46-1.17C24,251.91,30.6,248.26,33.38,250.72Z"/><path class="i" d="M60.71,243.62c4.58,2.14,8.5,13.07,9,17.7.2,2.26-1.51,3.64-3.89,4.43s-4.59.6-5-1.91c-.42-1.59-1.27-4.67-2.13-7.12-2.48-7.08-7.82-3-6.94,3.17.32,1.67.76,3.34,1.15,5.08.07.62.29,1.23.31,1.81a3.36,3.36,0,0,1-2.3,3.87c-2.33.81-4.94,1.45-6.05-.81-2.4-5.83-3.83-12.51-5.26-18a6.55,6.55,0,0,1-.13-2.33c.23-2.46,5.41-4,6.71-2.63a9.31,9.31,0,0,1,1.17,1.38,14.49,14.49,0,0,1,1.14,2.2C51.36,246.3,55,241,60.71,243.62Z"/><path class="i" d="M84.66,235.92a10.43,10.43,0,0,1,2.09,0c2.16.29,3.72,4.5,2.25,6.16a5.36,5.36,0,0,1-1.73,1.2c-1,.45-2.12.74-3.26,1.14a11.9,11.9,0,0,0,2,4.55,1.81,1.81,0,0,0,2.55.62,11.83,11.83,0,0,0,1.29-.91,2.52,2.52,0,0,1,3.53.18c2,1.92,2.44,4.22.4,6.35a13.52,13.52,0,0,1-8.54,4.09,5.79,5.79,0,0,1-5.55-2.81,37,37,0,0,1-3.71-8c-.09-.38-.29-.82-.44-1.26-1.11.11-2.1.27-3.1.3A3,3,0,0,1,69,245.57a9.27,9.27,0,0,1-.68-2.09c-.37-1.84.28-2.84,2-3.42a11.84,11.84,0,0,1,1.24-.25c.62-.17,1.1-.24,1.84-.46-.24-1-.39-1.92-.66-2.83-.38-1.6-.82-3.23-1.1-4.83a3.45,3.45,0,0,1,2.17-4.23,10.77,10.77,0,0,1,1.56-.64c2-.71,3.68-.19,4.51,1.76a39.3,39.3,0,0,1,1.55,4.71,29.2,29.2,0,0,1,.61,3.17C83,236.29,83.79,236,84.66,235.92Z"/><path class="i" d="M98.26,227.77c2.58-1.4,6.22-2.36,9-1.54a5.52,5.52,0,0,1,3.71,3.55c.61,1.62,1.15,3.26,1.69,4.94a3.52,3.52,0,0,1-2,4.63l-2.65.93-2.08.72c-.44.16-1,.43-.75,1a.94.94,0,0,0,1.3.69c1.32-.42,2.64-.93,4-1.41.73-.26,1.51-.53,2.33-.77a1.55,1.55,0,0,1,1.83.91,16.66,16.66,0,0,1,.84,2.91,3.78,3.78,0,0,1-1.63,3.45,14.94,14.94,0,0,1-10.4,3.32c-2.78-.22-4.46-1.77-6-3.85-2.93-4.06-4.09-10.64-4-12.62C93.35,231.5,95.1,229.06,98.26,227.77Zm5,8.23,3.34-1.17C105.36,230.41,102,232.74,103.24,236Z"/><path class="i" d="M128.76,237.72a8.21,8.21,0,0,1-5,2.14,6.26,6.26,0,0,1-5-1.57,9.16,9.16,0,0,1-2.65-4.42,13.52,13.52,0,0,1,0-8,9.42,9.42,0,0,1,2-3.69,7.34,7.34,0,0,1,5.58-2.59c2.57.15,4.62-.8,6.73-2a4.47,4.47,0,0,1,2.12-.74c2.07-.09,3.17.44,3.7,1.95.75,2.16,1.44,4.39,2.2,6.55.77,2.33,1.62,4.64,2.23,7a41.5,41.5,0,0,1,1.79,7.47c.4,3.47-1.22,6.41-4.54,8.44-2.43,1.54-7.16,3.06-9.81,2.53-1.85-.32-3.33-1-3.65-2.84-.79-4.62.06-4.68,4.89-5.24,2.52-.24,3.78-1.73,3.38-4.06-.25-1.23-.66-2.42-1-3.9C130.56,235.94,129.72,236.79,128.76,237.72Zm-5.73-9.2a5.92,5.92,0,0,0,.65,2.24c.53,1.14,1.28,1.33,2.76.86s1.95-1.09,1.76-2.3-.72-2.58-1.06-3.93C124.92,225.57,122.77,226.23,123,228.52Z"/><path class="i" d="M145.78,211.14c2.58-1.41,6.22-2.36,9-1.54a5.52,5.52,0,0,1,3.72,3.54c.61,1.62,1.14,3.26,1.68,4.94a3.51,3.51,0,0,1-2,4.63l-2.65.93-2.08.73c-.44.15-.94.42-.74,1a.93.93,0,0,0,1.29.69c1.32-.41,2.65-.92,4-1.41.73-.26,1.51-.53,2.34-.77a1.57,1.57,0,0,1,1.83.91,17.52,17.52,0,0,1,.83,2.91,3.78,3.78,0,0,1-1.63,3.45,14.9,14.9,0,0,1-10.4,3.32c-2.77-.22-4.46-1.77-6-3.85-2.92-4.05-4.09-10.64-4-12.62C140.87,214.87,142.63,212.43,145.78,211.14Zm5,8.22,3.34-1.17C152.88,213.77,149.49,216.1,150.77,219.36Z"/><path class="i" d="M170.93,206.58a10.16,10.16,0,0,1,5.08-3.65c1.76-.57,3,0,3.48,1.71.5,1.56.89,3.07,1.27,4.68.19,1.21-.19,1.8-1.36,2-7,1-5.54,8.61-3.37,13.25,1.29,2.75-2.8,4.27-5.33,4.88a2.82,2.82,0,0,1-3.55-2.18c-1.9-5.42-3.76-10.48-6-15.84a23.25,23.25,0,0,1-.93-2.78c-.94-3.24,2.67-4.55,5.43-4.87,1.81-.18,2.95,1.25,3.7,2.72.24.42.42.82.7,1.36C170.43,207.35,170.67,207,170.93,206.58Z"/></svg>