<svg xmlns="http://www.w3.org/2000/svg" viewBox="0 0 385.97 326.53"><defs><style>.a{fill:#f1b176;}.b{fill:#bf844f;}.c{fill:#dd9a5d;}.d,.f{fill:#fdca9b;}.e{fill:#fff;stroke-linecap:round;}.e,.f,.g{stroke:#039;stroke-width:4px;}.e,.g{stroke-linejoin:round;}.f{stroke-miterlimit:10;}.g{fill:none;}.h{fill:#d4fcff;opacity:0.55;}.i{font-size:32.51px;fill:#039;font-family:Fresh-Steak, Fresh Steak;}</style></defs><polygon class="a" points="200.05 257.67 276.74 210.97 198.48 168.85 112.57 222.19 200.05 257.67"/><polygon class="b" points="66 148.7 200.05 71.48 198.48 168.85 95.2 232.98 66 148.7"/><polygon class="c" points="200.05 71.48 330.78 148.36 329.41 242.39 198.48 168.85 200.05 71.48"/><polygon class="b" points="333.93 249.24 330.78 148.36 200.05 224.55 200.05 325.7 333.93 249.24"/><path class="c" d="M63,247.73l3-99,134.05,75.85s1.29,102.06,0,101.15S63,247.73,63,247.73Z"/><path class="d" d="M253.87,16.32,200.05,71.48l130.73,76.88S388,92.28,385.92,92.45,253.87,16.32,253.87,16.32Z"/><polygon class="d" points="200.05 224.55 330.78 148.36 371.71 192.29 229.92 272.05 200.05 224.55"/><polygon class="d" points="66 148.7 200.05 224.55 136.67 251.38 0 170.1 66 148.7"/><polygon class="d" points="7.16 112.36 139.92 36.21 200.05 71.48 66 148.7 7.16 112.36"/><polygon class="e" points="141.33 230.06 178.06 273.21 148.26 320.68 8.15 324.11 3.77 235.12 141.33 230.06"/><circle class="f" cx="155.44" cy="274.83" r="5.54"/><path class="g" d="M156.76,277.09c.41-20.3,7.53-14.79,19.12-25s10.57-18.25,23.48-26.38"/><rect class="h" x="175.79" y="238.33" width="16.48" height="8.13" transform="translate(145.85 -59.54) rotate(30)"/><text class="i" transform="translate(14.12 289.65) rotate(-0.98)">integer</text></svg>