<svg xmlns="http://www.w3.org/2000/svg" viewBox="0 0 385.97 326.53"><defs><style>.a{fill:#f1b176;}.b{fill:#bf844f;}.c{fill:#dd9a5d;}.d,.f{fill:#fdca9b;}.e{fill:#fff;stroke-linecap:round;}.e,.f,.g{stroke:#039;stroke-width:4px;}.e,.g{stroke-linejoin:round;}.f{stroke-miterlimit:10;}.g{fill:none;}.h{fill:#d4fcff;opacity:0.55;}.i{font-size:32.51px;fill:#039;font-family:Fresh-Steak, Fresh Steak;}</style></defs><polygon class="a" points="199.37 257.99 276.07 211.29 197.8 169.17 111.9 222.51 199.37 257.99"/><polygon class="b" points="65.32 149.02 199.37 71.8 197.8 169.17 94.52 233.3 65.32 149.02"/><polygon class="c" points="199.37 71.8 330.1 148.68 328.73 242.71 197.8 169.17 199.37 71.8"/><polygon class="b" points="333.25 249.56 330.1 148.68 199.37 224.87 199.37 326.02 333.25 249.56"/><path class="c" d="M62.31,248.05l3-99,134.05,75.85s1.29,102.05,0,101.15S62.31,248.05,62.31,248.05Z"/><path class="d" d="M245.43,0,199.37,71.8,330.1,148.68S379.5,76,377.47,76.14,245.43,0,245.43,0Z"/><polygon class="d" points="199.37 224.87 330.1 148.68 380.21 149.02 238.42 228.78 199.37 224.87"/><polygon class="d" points="65.32 149.02 199.37 224.87 148.11 227.58 11.43 146.3 65.32 149.02"/><polygon class="d" points="17.75 76.15 150.51 0 199.37 71.8 65.32 149.02 17.75 76.15"/><polygon class="e" points="140.65 230.37 177.38 273.53 147.59 321 7.47 324.43 3.09 235.43 140.65 230.37"/><circle class="f" cx="154.76" cy="275.15" r="5.54"/><path class="g" d="M156.08,277.4c.42-20.29,7.53-14.78,19.12-25s10.57-18.25,23.48-26.38"/><rect class="h" x="175.12" y="238.64" width="16.48" height="8.13" transform="matrix(0.87, 0.5, -0.5, 0.87, 145.92, -59.16)"/><text class="i" transform="translate(13.45 289.97) rotate(-0.98)">boolean</text></svg>