<svg xmlns="http://www.w3.org/2000/svg" viewBox="0 0 559.05 665.02"><defs><style>.a,.c,.f,.h,.m{fill:#fff;}.a,.b,.d,.e,.f,.h,.j,.l,.m{stroke:#039;}.a,.b,.d,.e,.f,.h,.j,.l{stroke-miterlimit:10;}.a,.b,.l{stroke-width:8px;}.b{fill:#f66;}.d{fill:#f5b94a;}.d,.e{stroke-width:4px;}.e,.l{fill:#df5233;}.f{stroke-width:12px;}.g{fill:#df8430;}.h,.m{stroke-width:10px;}.i{fill:#039;}.j{fill:#f9c;stroke-width:5px;}.k{fill:none;stroke:#df8430;stroke-width:9px;}.k,.m{stroke-linecap:round;stroke-linejoin:round;}</style></defs><path class="a" d="M350.87,387.32c18,17,58,47,67,62s11.3,26.26,8.65,36.63-19.65,8.37-27.65,2.37-37-27-37-27L339.19,397.9Z"/><path class="a" d="M214.77,389.5c-13,10.42-9,25.42-48,36.42s-48,10-48,17,4,28,25,32,40.1,3.33,53.05-1.34,22.45-21,22.45-21Z"/><path class="a" d="M285,562.32s53.65-19,54.65-15-4,54-8,71-11,39-22,40-16-24-21-42S274.32,570.31,285,562.32Z"/><path class="a" d="M259.17,661c13.83-1.1,17.08-24.6,20.83-47.1,4-24,8-56,8-56l-68-17-13-11s7,53,18,80S245.33,662.09,259.17,661Z"/><path class="a" d="M94.87,510.9c13.34,4,4,16,4,25s-.7,23.13,27.65,23.56,48.35-7.56,56.35-13.56,15-26,15-26l13-11.36,9,36.36-10,13s-18,13-25,16-48,23-71,22S70.5,581.58,65.19,552.24,84.87,507.9,94.87,510.9Z"/><path class="b" d="M223.7,368.59s-33,55-34,108,18,114,18,114h130c2,0,20-40,30-72s10-101-8-129-37-39-37-39l-89.84,4Z"/><polygon class="c" points="223.7 368.59 318.6 440.3 350.04 368.59 223.7 368.59"/><path class="d" d="M216.32,372.53l-7.4,21.09s93.66,64.51,98.73,68.86,15.07-10.65,15.07-10.65v-22l-87-61Z"/><path class="d" d="M358.37,367.71c6.35,2.12,2.35,15.12,2.35,15.12S300.61,510.58,299.17,531.2s-23.45,12.63-23.45,12.63-4-20,11-62S333,368.59,335.37,367.71,358.37,367.71,358.37,367.71Z"/><path class="e" d="M194.47,516.77c15.42,2.18,69.35,7.61,97.35,5.61s59-14,68-19,9.11-6.91,9.11-6.91-6.13,22.83-8.62,26.37-30,17.84-83.23,19.19-78.26.35-78.26.35S190.11,516.15,194.47,516.77Z"/><path class="e" d="M316.42,566.38c1.4,1,17.4-16,17.4-17s-33.56-24-33.56-24l-21.35,14.81S315,565.38,316.42,566.38Z"/><path class="e" d="M311.4,519.6c-9.58,1.78-23.41,5.41-32.49,11.1s-38.09,26.68-38.09,26.68l21,10s18.64-14.7,24.32-20.35c.66-.66,1.42-1.4,2.26-2.2,6.33-6.09,16.89-15.56,20.42-16.45C312.82,527.38,311.4,519.6,311.4,519.6Z"/><path class="f" d="M514.05,213.68S582.12,40.91,538.39,11.34,384,84.52,384,84.52Z"/><path class="g" d="M502.81,162.69s39.88-101,13.71-118.55-91.7,42.3-91.7,42.3Z"/><path class="f" d="M48.38,213.87S-23.31,42.57,19.79,12.09,175.71,82,175.71,82Z"/><path class="g" d="M58.54,162.66s-42-100.19-16.2-118.24,92.57,40.37,92.57,40.37Z"/><path class="h" d="M380.54,77.87C403.12,91.5,438.4,110.82,497.65,185.8c13.56,17.17,22.2,32.95,26.76,47.45,1.17,3.72,21.67,3.79,22.31,7.34.55,3-18.68,9.46-18.49,12.31.21,3.07,22.67,8.75,22.49,11.69-.22,3.87-23.21,5-24.06,8.59-1.09,4.73,16.11,17.05,14.06,21.41-1,2.06-20.82-3.69-22-1.71-41.36,70.77-203.16,92-240.21,92-36.45,0-178.08-13.52-225.85-82-1.71-2.46-20.51,5.36-22,2.76C29.4,303.24,45.38,290.48,44.27,288c-2.1-4.71-27.31.76-28.55-4.41-.52-2.21,22.55-14.88,22.19-17.18-.67-4.34-22.16-5.16-22.19-9.82,0-5.13,21.49-14.15,22.32-19.67,2.28-15.13,7.88-31.77,17.5-50C85.82,146.25,126.08,87.2,186.72,65.59c29-9,54.22-14.19,101-14S373.54,73.87,380.54,77.87Z"/><path class="i" d="M306.06,330.9c-9.37,0-16.62-4-18.75-6.73-1.28,2.67-6.11,6.33-17.26,6.33-1.33,0-2.74-.05-4.19-.16-16.83-1.2-27.66-20.25-27.66-23,0-1.55.87-2.09,1.61-2.09,1.25,0,2.69,1.34,3.94,3.68,4.88,9.1,12.35,14.37,22.21,15.65a35.78,35.78,0,0,0,4.66.33c8.73,0,11.11-4,12.53-6.44.2-.33.38-.63.55-.89,1.15-1.72,1-12.71.61-19.67l0-.53H290v.5c0,.15,0,15.39.4,19.09.33,3.08,9.81,8.82,18.19,8.82.33,0,.66,0,1,0,6.91-.43,16.87-8,19.71-12.77,4.3-7.16,5.86-8.08,6.74-8.08s1.28.82,1.28,2.43c-1.29,6.51-11.36,20.38-25.24,23A33.28,33.28,0,0,1,306.06,330.9Z"/><path class="i" d="M289.54,297.92s0,15.37.41,19.14,10.56,9.27,18.68,9.27l1,0c6.89-.43,17.05-7.94,20.1-13,2.53-4.22,5.06-7.84,6.31-7.84.49,0,.78.58.78,1.93-1.18,5.91-10.82,19.87-24.83,22.47a32.78,32.78,0,0,1-5.95.55c-11,0-18.88-5.63-18.88-7.65,0,2.16-3.92,7.25-17.13,7.25-1.29,0-2.68-.05-4.16-.15-16.55-1.19-27.19-20.11-27.19-22.47,0-1,.43-1.59,1.11-1.59.9,0,2.22,1,3.5,3.42,2.25,4.19,8.2,14,22.58,15.91a38.19,38.19,0,0,0,4.73.33c10.18,0,12-5.37,13.5-7.55,1.66-2.49.69-20,.69-20h4.73m1-1h-6.78l.06,1.06c.46,8.43.39,18-.54,19.36-.17.27-.36.57-.56.91-1.45,2.47-3.66,6.2-12.1,6.2a34.91,34.91,0,0,1-4.6-.33c-9.68-1.26-17-6.44-21.83-15.38-1.36-2.55-2.92-3.95-4.38-3.95a1.93,1.93,0,0,0-1.62.83,3,3,0,0,0-.49,1.76c0,2.77,11,22.24,28.12,23.46,1.46.11,2.89.16,4.23.16,10.31,0,15.57-3.08,17.38-5.95,2.78,2.9,9.9,6.35,18.63,6.35a33.3,33.3,0,0,0,6.13-.57c14.1-2.62,24.33-16.73,25.63-23.25l0-.1v-.1c0-2.42-1-2.93-1.78-2.93-1.13,0-2.78,1-7.17,8.33-2.79,4.64-12.55,12.1-19.31,12.52-.31,0-.63,0-.95,0-7.9,0-17.38-5.46-17.69-8.38-.39-3.67-.4-18.88-.4-19v-1Z"/><path class="j" d="M287.34,301.81c7.7.51,19.8-17.09,19.8-20.39s-13.48-9.64-23.24-9.22-19.66,5.92-19.66,10.32S279.65,301.31,287.34,301.81Z"/><path class="g" d="M206.72,64.59l30-6s5.08,124.56,13.54,130.28-14.54-2.28-24.54-19.28C206.7,137.26,206.72,64.59,206.72,64.59Z"/><path class="g" d="M330.66,178.78c-14.87-34.44-20.94-120.19-20.94-120.19,12,0,30,6,30,6"/><path class="g" d="M244.72,58.59c2-3,43-3,43-3S277.34,180,285.8,185.73s-9.67,15.16-24.54-19.28S242.72,61.59,244.72,58.59Z"/><path class="k" d="M535.72,240.59c-1.42-.12-49-3.32-49-3.32"/><path class="k" d="M538.21,262.91c-1.42-.13-49-3.33-49-3.33"/><path class="k" d="M534.77,287.18c-1.4-.32-48.13-9.87-48.13-9.87"/><path class="k" d="M25.44,253.47c1.4-.29,48.29-9,48.29-9"/><path class="k" d="M29.22,280C30.61,279.68,77,268.49,77,268.49"/><path class="k" d="M42,297.2c1.4-.31,48.13-9.87,48.13-9.87"/><path class="l" d="M46.72,227.59s77.53-80.71,238.82-83.22c161.7-2.51,225.59,73.95,226.18,69.22,1.14-9-8.62-21.69-26.18-44.72-18.19-23.85-28-32-39-44s-89.85-34.18-169-35-177,49-177,49-13,16-30,37S46.72,227.59,46.72,227.59Z"/><path class="m" d="M154.53,194.87c5.77-5,15.7-11.32,29.2-5"/><path class="m" d="M402.6,195.34c-5.78-5-15.7-11.32-29.2-5"/><circle class="i" cx="187.79" cy="255.57" r="30.25"/><circle class="c" cx="176.02" cy="242.4" r="6.48"/><circle class="c" cx="191.54" cy="245.87" r="4"/><circle class="i" cx="380.29" cy="255.57" r="30.25"/><circle class="c" cx="371.72" cy="241.9" r="5.98"/><circle class="c" cx="388.14" cy="246.22" r="4.4"/></svg>