<svg xmlns="http://www.w3.org/2000/svg" viewBox="0 0 560.35 672.68"><defs><style>.a,.c,.f,.k{fill:#fff;}.a,.b,.d,.e,.f,.j,.k,.l,.m{stroke:#039;}.a,.b,.d,.e,.f,.j,.m{stroke-miterlimit:10;}.a,.b{stroke-width:8px;}.b{fill:#fce74a;}.d,.i,.j{fill:#f9c;}.d,.e{stroke-width:4px;}.e{fill:#f5b94a;}.f,.k{stroke-width:10px;}.g{fill:#f66;}.h{fill:#039;}.i{opacity:0.41;}.j{stroke-width:5px;}.k,.l,.m{stroke-linecap:round;}.k,.l{stroke-linejoin:round;}.l,.m{fill:none;stroke-width:7px;}</style></defs><path class="a" d="M100.87,533.56c13.34,4,4,16,4,25s-.7,23.14,27.65,23.57,48.35-7.57,56.35-13.57,15-26,15-26l13-11.35,9,36.35-10,13s-18,13-25,16-48,23-71,22S76.5,604.25,71.19,574.9,90.87,530.56,100.87,533.56Z"/><path class="a" d="M281,565s53.65-19,54.65-15-4,54-8,71-11,39-22,40-16-24-21-42S270.32,573,281,565Z"/><path class="a" d="M251.17,668.65c13.83-1.1,17.08-24.6,20.83-47.1,4-24,8-56,8-56l-68-17-13-11s7,53,18,80S237.34,669.75,251.17,668.65Z"/><path class="a" d="M202.77,397.16c-13,10.42-9,25.42-48,36.42s-48,10-48,17,4,28,25,32,40.1,3.34,53.05-1.33,22.45-21,22.45-21Z"/><path class="a" d="M350.87,381c18,17,58,47,67,62s11.3,26.26,8.65,36.63S406.87,488,398.87,482s-37-27-37-27l-22.68-63.42Z"/><path class="b" d="M221.7,361.27s-33,55-34,108,18,114,18,114h130c2,0,20-40,30-72s10-101-8-129-37-39-37-39l-89.84,4Z"/><polygon class="c" points="225.87 380.99 309.37 441.19 337.87 376.89 225.87 380.99"/><path class="d" d="M210.73,377.2l-7.39,21.09S297,462.8,302.07,467.15s15.07-10.65,15.07-10.65v-22l-87-61Z"/><path class="d" d="M352.79,372.38c6.35,2.12,2.35,15.12,2.35,15.12S295,515.24,293.58,535.87s-23.44,12.63-23.44,12.63-4-20,11-62,46.3-113.25,48.65-114.12S352.79,372.38,352.79,372.38Z"/><path class="e" d="M193.47,520.6c15.42,2.18,69.36,7.62,97.36,5.62s59-14,68-19,9.1-6.91,9.1-6.91-6.13,22.83-8.62,26.37-30,17.84-83.23,19.19-78.25.35-78.25.35S189.11,520,193.47,520.6Z"/><path class="e" d="M315.42,570.22c1.41,1,17.41-16,17.41-17s-33.57-24-33.57-24L277.91,544S314,569.22,315.42,570.22Z"/><path class="e" d="M310.4,523.44c-9.57,1.78-23.41,5.41-32.49,11.1s-38.08,26.68-38.08,26.68l21,10s18.63-14.71,24.31-20.35c.66-.66,1.42-1.4,2.26-2.21,6.33-6.08,16.89-15.56,20.43-16.44C311.83,531.22,310.4,523.44,310.4,523.44Z"/><path class="f" d="M513.05,212.68S581.12,39.91,537.39,10.34,383,83.52,383,83.52Z"/><path class="g" d="M501.81,161.69s39.88-101,13.71-118.55-91.7,42.3-91.7,42.3Z"/><path class="f" d="M47.38,212.87S-24.31,41.57,18.79,11.09,174.71,81,174.71,81Z"/><path class="g" d="M57.54,161.66s-42-100.19-16.2-118.24,92.57,40.37,92.57,40.37Z"/><path class="f" d="M280.54,55.87c47.31-.52,79.42,6.38,102,20S440.4,108.82,499.65,183.8c11.7,14.82,21.66,25.43,21.41,31.46s38,4,34,32c-29-9-29.9-1.64-31,1s28,11,28,25c-5.51-1.42-21.71-3.24-28,1-3.47,2.34,32,18,21,29-14.73-4.91-30.36-3.44-31.15-2.43-49.92,62.83-198.11,82-233.37,82-32.2,0-146.54-10.56-205.67-60.29-2.36-2-24.64,20.79-26.81,18.68-3.61-3.5,13-32,10-35.88-.91-1.16-1.8-2.34-2.65-3.54-1.93-2.68-16.35,4.42-31.35,14.42.56-24.94,22.26-36.18,21-38-1-4-2-7-4.1-8.29-.56-2.52-12.9-.71-31.9,13.29,6-30,29.79-35.58,29.95-38.39,1-17.71,6.75-37.62,18.53-60,61.07-81.95,105-101,124-110S237.52,56.35,280.54,55.87Z"/><path class="h" d="M305.06,329.9c-9.36,0-16.62-4-18.75-6.73-1.28,2.67-6.11,6.33-17.26,6.33-1.33,0-2.74-.05-4.19-.16-16.83-1.2-27.66-20.25-27.66-23,0-1.55.87-2.09,1.61-2.09,1.25,0,2.69,1.34,3.94,3.68,4.88,9.1,12.35,14.37,22.21,15.65a35.78,35.78,0,0,0,4.66.33c8.73,0,11.11-4,12.53-6.44.2-.33.38-.63.55-.89,1.15-1.72,1-12.71.61-19.67l0-.53H289v.5c0,.15,0,15.39.4,19.09.33,3.08,9.81,8.82,18.19,8.82.33,0,.66,0,1,0,6.91-.43,16.87-8,19.71-12.77,4.3-7.16,5.86-8.08,6.73-8.08s1.29.82,1.29,2.43c-1.29,6.51-11.36,20.38-25.24,23A33.28,33.28,0,0,1,305.06,329.9Z"/><path class="h" d="M288.54,296.92s0,15.37.41,19.14,10.56,9.27,18.68,9.27l1,0c6.89-.43,17.05-7.94,20.1-13,2.53-4.22,5.06-7.84,6.31-7.84.49,0,.78.58.78,1.93-1.18,5.91-10.82,19.87-24.83,22.47a32.78,32.78,0,0,1-5.95.55c-11,0-18.88-5.63-18.88-7.65,0,2.16-3.92,7.25-17.13,7.25-1.29,0-2.68-.05-4.16-.15-16.55-1.19-27.19-20.11-27.19-22.47,0-1,.43-1.59,1.11-1.59.9,0,2.22,1,3.5,3.42,2.25,4.19,8.2,14,22.58,15.91a38.19,38.19,0,0,0,4.73.33c10.18,0,12-5.37,13.5-7.55,1.66-2.49.69-20,.69-20h4.73m1-1h-6.78l.06,1.06c.46,8.43.39,18-.54,19.36-.17.27-.36.57-.56.91-1.45,2.47-3.66,6.2-12.1,6.2a34.91,34.91,0,0,1-4.6-.33c-9.69-1.26-17-6.44-21.83-15.38-1.36-2.55-2.92-3.95-4.38-3.95a1.93,1.93,0,0,0-1.62.83,3,3,0,0,0-.49,1.76c0,2.77,11,22.24,28.12,23.46,1.46.11,2.89.16,4.23.16,10.31,0,15.57-3.08,17.38-5.95,2.78,2.9,9.9,6.35,18.63,6.35a33.3,33.3,0,0,0,6.13-.57c14.1-2.62,24.33-16.73,25.63-23.25l0-.1v-.1c0-2.42-1-2.93-1.78-2.93-1.13,0-2.78,1-7.17,8.33-2.79,4.64-12.55,12.1-19.31,12.52-.31,0-.63,0-.95,0-7.9,0-17.38-5.46-17.69-8.38-.39-3.67-.4-18.88-.4-19v-1Z"/><ellipse class="i" cx="392.04" cy="307.09" rx="20.11" ry="15.83"/><ellipse class="i" cx="175.17" cy="307.65" rx="20.11" ry="15.83"/><path class="j" d="M286.34,300.81c7.7.51,19.8-17.09,19.8-20.39s-13.48-9.64-23.24-9.22-19.66,5.92-19.66,10.32S278.65,300.31,286.34,300.81Z"/><path class="b" d="M45.54,230.87s77.7-85.45,239-87.5,234,73.5,233.52,69.89-15.52-21.39-33.52-45.39-28-32-39-44-89.85-34.18-169-35-177,49-177,49-13,16-30,37S45.54,230.87,45.54,230.87Z"/><path class="k" d="M153.53,193.87c5.77-5,15.7-11.32,29.2-5"/><path class="k" d="M401.6,194.34c-5.78-5-15.7-11.32-29.2-5"/><path class="b" d="M163.9,88.83s20.38-41.34,40.7-50.67,27.66,7.37,28.07,12.94-1.44,26.71-.43,30.57,13.24,23.44,12.32,31.94S227.75,136.11,214,131s-40.26-15.83-40.26-15.83Z"/><path class="b" d="M129.09,99.44S96.14,71.51,83.26,68.18,60.81,69.35,54.27,80s8.71,43.52,9.3,43.06.31,6.45-1.19,12.7,0,20.31,4.91,27.32,17,6,32-4.06,27.3-29,27.75-30S129.09,99.44,129.09,99.44Z"/><circle class="b" cx="148.37" cy="110.87" r="26.5"/><path class="l" d="M172.76,99.28s18.82-9.68,23.53-10.17,8.16.32,7.54,2.21"/><path class="l" d="M119.22,115.43s-21.16.55-25.52,2.39-7,4.19-5.55,5.56"/><path class="c" d="M228.71,55.73c0,2.05.13,2.52,0,4.12a21.84,21.84,0,0,1-.48,2.19,2.42,2.42,0,0,1-1.69,1.46,7,7,0,0,1-3.47-13.56c2.31-.59,4.6-.65,5.34.7A13.19,13.19,0,0,1,228.71,55.73Z"/><circle class="c" cx="187.84" cy="77.54" r="7"/><circle class="c" cx="222.39" cy="95.54" r="7"/><circle class="c" cx="190.69" cy="108.81" r="7"/><circle class="c" cx="135.67" cy="115.67" r="7"/><circle class="c" cx="102.82" cy="96.2" r="7"/><circle class="c" cx="66.63" cy="87.92" r="7"/><circle class="c" cx="86.85" cy="146.74" r="7"/><circle class="h" cx="379.29" cy="254.57" r="30.25"/><circle class="c" cx="387.14" cy="245.22" r="4.4"/><circle class="c" cx="370.72" cy="240.9" r="5.98"/><path class="m" d="M427.78,232.07a43,43,0,0,1-25.46,15.56"/><path class="m" d="M423.15,218.41s-6,12.06-22.89,15.4"/><circle class="h" cx="186.79" cy="254.57" r="30.25"/><circle class="c" cx="175.02" cy="241.4" r="6.48"/><circle class="c" cx="190.54" cy="244.87" r="4"/><path class="m" d="M142.67,219.36s6,12.06,22.89,15.4"/><path class="m" d="M138,233a43,43,0,0,0,25.46,15.56"/></svg>