<svg xmlns="http://www.w3.org/2000/svg" viewBox="0 0 139.16 177"><defs><style>.a{fill:#fff;}.a,.c{stroke:#000;stroke-linecap:round;stroke-linejoin:round;stroke-width:2px;}.b{fill:#f33;}.c{fill:none;}</style></defs><path class="a" d="M1.41,6l16-5s117,28,118,30,1,139.3,0,140.65-9,4.35-12,4.35c-1.18,0-12.07-3-34-10-34-10.91-84-27.78-84-29C5.41,135-.59,7,1.41,6Z"/><path class="b" d="M33.17,55l20.24,6.36,14-6.36-21-6S30.93,54,33.17,55Z"/><line class="a" x1="122.41" y1="35" x2="123.41" y2="176"/><path class="a" d="M122.41,35c2.68-1,11.57-4.65,11.57-4.65"/><line class="a" x1="1.41" y1="6" x2="122.91" y2="34.81"/><path class="c" d="M30.41,55c2.53-1.26,15-6,16-6s23,6,24,7,2,70,1,71S65,127,65,127,41,119.67,40.72,118.33,42.41,87,42.41,87,28.41,56,30.41,55Z"/><path class="c" d="M30.41,55l23,7s6.94-6,16-6"/><polyline class="c" points="53.41 62 66.99 92.76 65.8 127.14"/><line class="c" x1="42.41" y1="87" x2="66.99" y2="92.76"/><path d="M76.38,30.73a1.64,1.64,0,0,1-.32.74c-.24.38-.39.62-.43.71a12,12,0,0,0-1.07,4l-.44,7.72a6,6,0,0,1-.73,2.39c-.56,1-1.22,1.51-2,1.48-1.14,0-2.22-.92-3.26-2.62A26.7,26.7,0,0,1,65.93,40c-.41-1.42-.84-2.84-1.27-4.25a54.38,54.38,0,0,0-.92,6.09c-.1,2.29,0,3.62.3,4s.46.61.45.77a1.08,1.08,0,0,1-.66.88,2.28,2.28,0,0,1-1.25.33q-.87,0-1.35-1.65a6.66,6.66,0,0,1-.34-2.27L61,42.46c.05-.6.08-1.05.1-1.35a25.07,25.07,0,0,1,.45-3.27A24.75,24.75,0,0,0,62,34.58l.15-3.28a.45.45,0,0,0,0-.16.45.45,0,0,1,0-.16c0-.36.31-.64.88-.85a3.34,3.34,0,0,1,1.37-.24,2.7,2.7,0,0,1,2.22,1,3.9,3.9,0,0,1,.28,1.25c0,.43.09.87.13,1.32a43.63,43.63,0,0,0,1.68,6.22q1.67,5,2.59,5.09c.22,0,.35-.24.37-.74a5.32,5.32,0,0,0,0-.7,4.73,4.73,0,0,1,0-.76l.64-7.28a11.63,11.63,0,0,1,.79-3.2c.6-1.46,1.35-2.18,2.26-2.13a2.61,2.61,0,0,1,1.19.53A2.29,2.29,0,0,1,76.38,30.73Z"/><path d="M63.41,131.39c0,.65-.4,1-1.21,1l-.46,0a3.38,3.38,0,0,0-.46,0,10.57,10.57,0,0,0-2.56.4c-1.35.36-2.2.56-2.53.62-.12.87-.24,1.74-.35,2.59a20.44,20.44,0,0,0-.2,2.63c0,.57.13.85.4.83l.17,0c1.36-.12,2.29-.18,2.81-.18a2.84,2.84,0,0,1,2.56,1.17c0,.75-.26,1.13-.78,1.13a2,2,0,0,1-.44-.08,2,2,0,0,0-.44-.08l-.92,0h-.93a11.52,11.52,0,0,0-2.11.16c-.27.08-.42.16-.47.26a2.26,2.26,0,0,0-.12.67c0,.35,0,.7,0,1a12.84,12.84,0,0,0,.2,3.41,2.07,2.07,0,0,1,.37.78,1,1,0,0,1-.41.74,1.22,1.22,0,0,1-.77.36,1.16,1.16,0,0,1-1.15-.56,9.84,9.84,0,0,1-.53-4c0-1.07.1-2.67.29-4.8s.29-3.73.29-4.8c0-.79-.06-1.18-.18-1.18l-.16,0-.16,0c-.2,0-.39-.14-.56-.43a1.53,1.53,0,0,1-.27-.8.71.71,0,0,1,.5-.65,7.19,7.19,0,0,1,.83-.26,1.4,1.4,0,0,1-.07-.38c0-.61.28-.91.85-.91a3,3,0,0,1,1.48.83,36.61,36.61,0,0,1,5.49-.72,3.18,3.18,0,0,1,1.3.26A1.11,1.11,0,0,1,63.41,131.39Z"/><path d="M76.41,134.47c0,.68-.41,1-1.23,1a3.5,3.5,0,0,1-.47,0,3.62,3.62,0,0,0-.48,0,10.53,10.53,0,0,0-2.6.42c-1.38.38-2.24.6-2.59.65-.11.92-.23,1.84-.35,2.74a22.82,22.82,0,0,0-.21,2.77c0,.6.14.89.41.87l.18,0c1.38-.13,2.34-.2,2.86-.2a2.86,2.86,0,0,1,2.61,1.25c0,.79-.26,1.18-.79,1.18a2.13,2.13,0,0,1-.45-.08,1.6,1.6,0,0,0-.45-.09l-.94,0H71a10.84,10.84,0,0,0-2.14.17c-.28.08-.44.17-.49.27a2.56,2.56,0,0,0-.12.71c0,.37,0,.73,0,1.09a14.27,14.27,0,0,0,.2,3.6,2.19,2.19,0,0,1,.38.82,1.06,1.06,0,0,1-.42.78,1.18,1.18,0,0,1-.78.38,1.16,1.16,0,0,1-1.17-.59,10.61,10.61,0,0,1-.54-4.16c0-1.13.1-2.82.29-5.06s.3-3.93.3-5.06c0-.83-.06-1.24-.18-1.24l-.17,0-.16,0c-.21,0-.4-.15-.58-.45a1.65,1.65,0,0,1-.27-.85.72.72,0,0,1,.51-.67,5.9,5.9,0,0,1,.85-.29,1.49,1.49,0,0,1-.08-.39q0-1,.87-1a3,3,0,0,1,1.51.87,37,37,0,0,1,5.6-.76,3.05,3.05,0,0,1,1.33.29A1.15,1.15,0,0,1,76.41,134.47Z"/><path d="M59.05,36a10.15,10.15,0,0,1-2.31,6.29A7.32,7.32,0,0,1,50.44,45a8.06,8.06,0,0,1-2.36-.5,6.62,6.62,0,0,1-3.94-3.08,9.3,9.3,0,0,1-.84-4.81,11.85,11.85,0,0,1,2.32-6.74,7.23,7.23,0,0,1,6.46-3.19,6.44,6.44,0,0,1,5.44,3.25A10.32,10.32,0,0,1,59.05,36Zm-2.71-.58q.24-5.58-3.51-6.86a4,4,0,0,0-.91-.15,5,5,0,0,0-3.24,1.21C46.93,31,46,33.58,45.8,37.3A6.47,6.47,0,0,0,46,38.74a5.9,5.9,0,0,0,1.31,3A4.49,4.49,0,0,0,50.48,43,4.71,4.71,0,0,0,55,40.54,10.69,10.69,0,0,0,56.34,35.45Z"/><path d="M49.48,135.06a10.14,10.14,0,0,1-2.3,6.29,7.35,7.35,0,0,1-6.3,2.69,8.39,8.39,0,0,1-2.37-.5,6.66,6.66,0,0,1-3.94-3.09,9.26,9.26,0,0,1-.84-4.8,11.89,11.89,0,0,1,2.32-6.74,7.25,7.25,0,0,1,6.47-3.2A6.46,6.46,0,0,1,48,129,10.38,10.38,0,0,1,49.48,135.06Zm-2.71-.57q.25-5.6-3.51-6.86a3,3,0,0,0-.9-.15,4.93,4.93,0,0,0-3.25,1.2q-2.62,2.07-2.87,7.66a6.26,6.26,0,0,0,.16,1.43,5.89,5.89,0,0,0,1.32,3A4.49,4.49,0,0,0,40.91,142a4.76,4.76,0,0,0,4.5-2.47A10.65,10.65,0,0,0,46.77,134.49Z"/></svg>