<svg xmlns="http://www.w3.org/2000/svg" viewBox="0 0 197.7 188.02"><defs><style>.a{fill:#fce74a;}.b{fill:#ff960b;}</style></defs><polygon class="a" points="53.72 118.6 8.6 74.61 70.96 65.55 98.85 9.04 126.74 65.55 189.1 74.61 143.98 118.6 154.63 180.71 98.85 151.38 43.07 180.71 53.72 118.6"/><path class="b" d="M99.85,23.63,123.22,71l1.86,3.77,4.16.61L181.51,83l-37.82,36.86-3,2.94.71,4.15,8.93,52-46.75-24.58-3.72-2-3.72,2L49.38,179l8.93-52,.71-4.15-3-2.94L18.19,83l52.26-7.59,4.17-.61L76.48,71,99.85,23.63m0-18.08L69.3,67.44,1,77.37l49.42,48.17-11.66,68,61.09-32.12,61.09,32.12-11.67-68L198.7,77.37l-68.31-9.93L99.85,5.55Z" transform="translate(-1 -5.55)"/><path d="M80.39,83.91a5.59,5.59,0,0,0-.3-.6c-1.43-2.29.89-4.48,2.15-6.13a2.69,2.69,0,0,1,2.49-1.13A3.92,3.92,0,0,0,86,76a2.7,2.7,0,0,1,3,2.92c-.09,2-.06,3.88-.09,5.81-.07,3.78.16,8.49.06,12.37a2.93,2.93,0,0,1-2.75,3.12,15.35,15.35,0,0,1-2.46.06c-2-.16-2-1.69-1.82-3.38a51.64,51.64,0,0,0,.66-11A2.35,2.35,0,0,1,80.39,83.91Z" transform="translate(-1 -5.55)"/><path d="M99.76,100.1a13.19,13.19,0,0,1-4.25,0c-4-.53-4.21-4.54-4.34-7.73-.13-2.85-.1-5.8,0-8.69.06-3.55,1.33-6.93,4.77-7.36,2.19-.23,6.84-.67,8,2.78.73,2.33,1.09,11.25-.24,16.56A5.22,5.22,0,0,1,99.76,100.1ZM96.38,83a36.08,36.08,0,0,0-.14,8.66c.5,3.52,2,2.32,2.36-.2a47.82,47.82,0,0,0,.3-8.62C98.7,80.76,96.67,80.56,96.38,83Z" transform="translate(-1 -5.55)"/><path d="M115.35,100.1a13.13,13.13,0,0,1-4.24,0c-4-.53-4.22-4.54-4.35-7.73-.13-2.85-.1-5.8,0-8.69.07-3.55,1.33-6.93,4.78-7.36,2.19-.23,6.83-.67,8,2.78.73,2.33,1.09,11.25-.23,16.56A5.23,5.23,0,0,1,115.35,100.1ZM112,83a36.08,36.08,0,0,0-.14,8.66c.5,3.52,2,2.32,2.36-.2a47.82,47.82,0,0,0,.3-8.62C114.29,80.76,112.27,80.56,112,83Z" transform="translate(-1 -5.55)"/><path d="M69.14,119.3c-.07,1.9-.72,2.55-2.64,2.53a4.33,4.33,0,0,1-1.44-.27A1.4,1.4,0,0,1,64,120c0-.72.15-1.41.2-2.15.09-2.4.25-5.2.29-7.6,0-1.46-.09-2.87-.13-4.33a.63.63,0,0,0-.05-.29,1.48,1.48,0,0,1,.85-1.73,5,5,0,0,1,1.51-.44,16.48,16.48,0,0,1,5.94.26,5.08,5.08,0,0,1,2,.92c2.35,1.93,2.28,9.82-.38,11.32a10.37,10.37,0,0,1-4.33,1.08l-.74,0C69.14,117.75,69.16,118.69,69.14,119.3Zm2.6-7.49a6.86,6.86,0,0,0,0-3.09,1.23,1.23,0,0,0-1.88-.76.67.67,0,0,0-.3.38,2,2,0,0,0-.09.69c0,1.41,0,2.8.07,4.22C70.93,113.38,71.43,113,71.74,111.81Z" transform="translate(-1 -5.55)"/><path d="M87.45,120.91c-2.6.56-8.76.5-9.28-2.89a46.74,46.74,0,0,1-.51-9.14c0-2.09,1.16-4.69,3.52-5.21a23.25,23.25,0,0,1,4.41-.38l1.64,0a3,3,0,0,1,3,2.13A33,33,0,0,1,90,118.54,3.48,3.48,0,0,1,87.45,120.91Zm-2.66-12.66a1.78,1.78,0,0,0-2.63,1.21,17.83,17.83,0,0,0,.16,5.76,1.36,1.36,0,0,0,.54.83,1.7,1.7,0,0,0,2.71-1,24.77,24.77,0,0,0,.11-5A1.89,1.89,0,0,0,84.79,108.25Z" transform="translate(-1 -5.55)"/><path d="M97.56,118.25c0,.4,0,.91-.06,1.32a1.9,1.9,0,0,1-1.86,1.79c-.59,0-1.17-.07-1.75-.07-1,0-1.35-1.3-1.35-2.08,0-3.92,0-9.37,0-13.29v-.14c.25-1.81.6-2.08,2.29-2.17l1.27,0a1.22,1.22,0,0,1,1.28,1,4.34,4.34,0,0,1,.18,1.19V113h0C97.56,114.73,97.59,116.5,97.56,118.25Z" transform="translate(-1 -5.55)"/><path d="M103.82,115c0,1.44,0,2.92,0,4.35a1.42,1.42,0,0,1,0,.29c-.16,1.21-.43,1.5-1.73,1.64-.62,0-1.25,0-1.88,0a.91.91,0,0,1-.92-.9,11.07,11.07,0,0,1-.09-1.52c0-3.19,0-6.41,0-9.6,0-1.43,0-2.86,0-4.28,0-.89.27-1.14,1.25-1.23a5.62,5.62,0,0,1,.92-.09,2.44,2.44,0,0,1,2.45,1.32c.67,1.33,1.43,2.63,2.13,4s1.5,2.28,2.28,3.45a.28.28,0,0,0,.18,0v-.76c0-1.81-.07-3.65-.09-5.47a9.79,9.79,0,0,1,.09-1.1,1,1,0,0,1,1.12-.91c.59,0,1.19,0,1.77,0,.94,0,1.24.21,1.33,1.08.17,1.32.29,2.67.33,4,0,2.44.07,5,.09,7.44,0,1-.07,2-.13,3a1.75,1.75,0,0,1-1.46,1.5.39.39,0,0,1-.16,0,2.66,2.66,0,0,1-3.18-1.28c-1.28-2-2.69-4-4-5.91-.09-.16-.23-.3-.36-.54C103.82,114,103.77,114.48,103.82,115Z" transform="translate(-1 -5.55)"/><path d="M116,107.62a.87.87,0,0,1-.92-.63,6.64,6.64,0,0,1-.23-2.73,1.09,1.09,0,0,1,.9-.92,10.08,10.08,0,0,1,2.17-.38c1.8-.07,3.61,0,5.41,0a2.75,2.75,0,0,1,.4,0c1,.11,1.3.42,1.39,1.41,0,.67,0,1.34,0,2a1.3,1.3,0,0,1-1.28,1.25c-.47,0-.94.07-1.48.14,0,.6,0,1.23-.06,1.86-.09,3-.07,6,.09,9,0,.65,0,1.32,0,2a2.18,2.18,0,0,1-.11.52,1,1,0,0,1-1,.81c-.92,0-1.84-.07-2.76-.14a1,1,0,0,1-1.07-1.21c0-.87.09-1.75.13-2.62.09-1.62.18-3.23.25-4.87s.11-3.18.15-4.77v-.76C117.18,107.6,116.57,107.6,116,107.62Z" transform="translate(-1 -5.55)"/><path d="M128.5,117.77c.94-.15,2.08.54,2.93.21s.9-1.6.25-2.47c-1.79-2.38-4.75-3.56-4.82-6.75-.07-3.58,2.29-5.51,5.65-5.94a11.43,11.43,0,0,1,3.65.18,5.51,5.51,0,0,1,.74.27.9.9,0,0,1,.54,1,21,21,0,0,1-.54,2.35c-.27.83-.78,1-1.64.86l-1.12-.27c-2.64-.74-3.38,1.5-1.79,3.09,1.82,1.79,4.53,3.59,4.73,6.52.36,5-5.42,6.44-8.47,5.2-1.06-.42-1-1.5-1.1-2.53A1.58,1.58,0,0,1,128.5,117.77Z" transform="translate(-1 -5.55)"/></svg>